<svg width="19" height="19" viewBox="0 0 19 19" fill="none" xmlns="http://www.w3.org/2000/svg">
<path d="M3.25829 9.55762C3.25829 9.83239 3.38014 10.0873 3.49552 10.2787C3.62003 10.4853 3.78748 10.6985 3.97117 10.9064C4.33967 11.3236 4.82049 11.7715 5.2871 12.1767C5.75645 12.5842 6.22418 12.9595 6.57358 13.2323C6.74858 13.3688 6.89457 13.4802 6.9971 13.5577C7.04839 13.5964 7.08884 13.6267 7.11666 13.6475L7.14871 13.6713L7.15721 13.6776L7.16016 13.6797C7.40547 13.8604 7.75113 13.8083 7.93182 13.563C8.11251 13.3177 8.06014 12.9724 7.81487 12.7917L7.8055 12.7847L7.77605 12.7628C7.75 12.7434 7.71143 12.7146 7.66216 12.6773C7.56357 12.6029 7.42224 12.495 7.25245 12.3625C6.91228 12.097 6.46059 11.7344 6.01051 11.3436C5.55769 10.9504 5.11909 10.5394 4.79802 10.1759C4.77771 10.153 4.75806 10.1304 4.73907 10.1082L15.5787 10.1082C15.8834 10.1082 16.1304 9.8612 16.1304 9.55652C16.1304 9.25185 15.8834 9.00486 15.5787 9.00486L4.74093 9.00486C4.75935 8.98338 4.77838 8.96152 4.79802 8.93928C5.11909 8.57587 5.55769 8.16483 6.01051 7.77161C6.46059 7.38078 6.91228 7.01823 7.25245 6.75272C7.42224 6.62019 7.56357 6.51237 7.66215 6.43789C7.71143 6.40066 7.74999 6.3718 7.77604 6.35238L7.8055 6.33048L7.81487 6.32356C8.06014 6.14286 8.11251 5.79753 7.93182 5.55224C7.75112 5.30693 7.40547 5.25479 7.16016 5.43548L7.15721 5.43766L7.14871 5.44395L7.11666 5.46777C7.08884 5.48851 7.04838 5.51879 6.9971 5.55754C6.89456 5.635 6.74857 5.74639 6.57358 5.88297C6.22418 6.1557 5.75645 6.53098 5.2871 6.93855C4.82049 7.34374 4.33967 7.79167 3.97117 8.20878C3.78748 8.4167 3.62003 8.62996 3.49552 8.83651C3.38083 9.02677 3.25976 9.27979 3.2583 9.55267" fill="white"/>
</svg>
