<svg width="21" height="20" viewBox="0 0 21 20" fill="none" xmlns="http://www.w3.org/2000/svg">
<path d="M5.91667 16.6667H4.66667C3.74619 16.6667 3 15.9206 3 15.0001V3.33341C3 2.41294 3.74619 1.66675 4.66667 1.66675H16.3333C17.2538 1.66675 18 2.41294 18 3.33341V15.0001C18 15.9206 17.2538 16.6667 16.3333 16.6667H15.0833M10.5 15.8334C11.8807 15.8334 13 14.7141 13 13.3334C13 11.9527 11.8807 10.8334 10.5 10.8334C9.11929 10.8334 8 11.9527 8 13.3334C8 14.7141 9.11929 15.8334 10.5 15.8334ZM10.5 15.8334L10.5179 15.8332L7.85723 18.4939L5.5002 16.1369L8.01638 13.6207M10.5 15.8334L13.1607 18.4939L15.5177 16.1369L13.0015 13.6207M8 5.00008H13M6.33333 7.91675H14.6667" stroke="white" stroke-width="1.66667" stroke-linecap="round" stroke-linejoin="round"/>
</svg>
