<svg width="40" height="44" viewBox="0 0 40 44" fill="none" xmlns="http://www.w3.org/2000/svg">
<g clip-path="url(#clip0_110_5248)">
<path d="M0 20C0 8.95431 8.95431 0 20 0C31.0457 0 40 8.95431 40 20C40 31.0457 31.0457 40 20 40C8.95431 40 0 31.0457 0 20Z" fill="#F9F5FF"/>
<path d="M0 20C0 8.95431 8.95431 0 20 0C31.0457 0 40 8.95431 40 20C40 31.0457 31.0457 40 20 40C8.95431 40 0 31.0457 0 20Z" fill="#68C35C"/>
<path fill-rule="evenodd" clip-rule="evenodd" d="M28.4942 12.3168L16.5608 23.8334L13.3942 20.4501C12.8108 19.9001 11.8942 19.8668 11.2275 20.3334C10.5775 20.8168 10.3942 21.6668 10.7942 22.3501L14.5442 28.4501C14.9108 29.0168 15.5442 29.3668 16.2608 29.3668C16.9442 29.3668 17.5942 29.0168 17.9608 28.4501C18.5608 27.6668 30.0108 14.0168 30.0108 14.0168C31.5108 12.4834 29.6942 11.1334 28.4942 12.3001V12.3168Z" fill="white"/>
</g>
<defs>
<clipPath id="clip0_110_5248">
<path d="M0 20C0 8.95431 8.95431 0 20 0C31.0457 0 40 8.95431 40 20C40 31.0457 31.0457 40 20 40C8.95431 40 0 31.0457 0 20Z" fill="white"/>
</clipPath>
</defs>
</svg>
