<svg width="18" height="18" viewBox="0 0 18 18" fill="none" xmlns="http://www.w3.org/2000/svg">
<rect width="18" height="18" rx="9" fill="#D1FADF"/>
<g clip-path="url(#clip0_3_22499)">
<path d="M12.75 8.65501V9.00001C12.7495 9.80867 12.4877 10.5955 12.0035 11.2432C11.5193 11.8909 10.8387 12.3647 10.0633 12.594C9.28779 12.8233 8.45897 12.7957 7.70043 12.5155C6.94188 12.2352 6.29425 11.7173 5.85411 11.0389C5.41397 10.3605 5.20492 9.55803 5.25813 8.75113C5.31134 7.94422 5.62395 7.17613 6.14935 6.56141C6.67476 5.94669 7.38479 5.51828 8.17357 5.34006C8.96235 5.16185 9.7876 5.24339 10.5263 5.57251M12.75 6.00001L9 9.75376L7.875 8.62876" stroke="#039855" stroke-width="0.75" stroke-linecap="round" stroke-linejoin="round"/>
</g>
<defs>
<clipPath id="clip0_3_22499">
<rect width="9" height="9" fill="white" transform="translate(4.5 4.5)"/>
</clipPath>
</defs>
</svg>
