<svg width="22" height="19" viewBox="0 0 22 19" fill="none" xmlns="http://www.w3.org/2000/svg">
<path d="M6 6L8.94202 7.7394C10.6572 8.7535 11.3428 8.7535 13.058 7.7394L16 6" stroke="#199491" stroke-width="1.5" stroke-linecap="round" stroke-linejoin="round"/>
<path d="M1.01577 10.9756C1.08114 14.0411 1.11383 15.5739 2.24496 16.7093C3.37609 17.8448 4.95034 17.8843 8.09884 17.9634C10.0393 18.0122 11.9607 18.0122 13.9012 17.9634C17.0497 17.8843 18.6239 17.8448 19.755 16.7093C20.8862 15.5739 20.9189 14.0411 20.9842 10.9756C21.0053 9.98993 21.0053 9.01003 20.9842 8.02443C20.9189 4.95886 20.8862 3.42609 19.755 2.29066C18.6239 1.15523 17.0497 1.11568 13.9012 1.03657C11.9607 0.987811 10.0393 0.987811 8.09882 1.03656C4.95034 1.11566 3.37609 1.15521 2.24496 2.29065C1.11383 3.42608 1.08114 4.95885 1.01577 8.02433C0.994745 9.01003 0.994745 9.98993 1.01577 10.9756Z" stroke="#199491" stroke-width="1.5" stroke-linejoin="round"/>
</svg>
