<svg width="40" height="36" viewBox="0 0 40 36" fill="none" xmlns="http://www.w3.org/2000/svg">
<path d="M17.795 25.5001C18.3826 26.0187 19.1544 26.3334 19.9998 26.3334C20.8452 26.3334 21.6171 26.0187 22.2047 25.5001M24.9998 14.6667C24.9998 13.3407 24.473 12.0689 23.5353 11.1312C22.5977 10.1935 21.3259 9.66675 19.9998 9.66675C18.6737 9.66675 17.402 10.1935 16.4643 11.1312C15.5266 12.0689 14.9998 13.3407 14.9998 14.6667C14.9998 17.2419 14.3502 19.005 13.6245 20.1713C13.0124 21.155 12.7064 21.6468 12.7176 21.784C12.73 21.936 12.7622 21.9939 12.8846 22.0847C12.9952 22.1667 13.4936 22.1667 14.4905 22.1667H25.5091C26.506 22.1667 27.0044 22.1667 27.115 22.0847C27.2374 21.9939 27.2696 21.936 27.282 21.784C27.2933 21.6468 26.9872 21.155 26.3751 20.1713C25.6494 19.005 24.9998 17.2419 24.9998 14.6667Z" stroke="#717680" stroke-width="1.66667" stroke-linecap="round" stroke-linejoin="round"/>
</svg>
