<svg width="34" height="33" viewBox="0 0 34 33" fill="none" xmlns="http://www.w3.org/2000/svg">
<path d="M27.8125 17.875V14.6532C27.8125 13.5291 27.8125 12.9671 27.6032 12.4617C27.3938 11.9563 26.9964 11.5589 26.2015 10.7641L19.6889 4.25134C19.0029 3.56538 18.66 3.22238 18.2349 3.01916C18.1465 2.97687 18.0561 2.93937 17.9637 2.90676C17.5194 2.75 17.0344 2.75 16.0642 2.75C11.6024 2.75 9.37143 2.75 7.86033 3.96835C7.55505 4.21449 7.27698 4.49255 7.03085 4.79783C5.8125 6.30893 5.8125 8.53988 5.8125 13.0018V17.875M18.1875 3.4375V4.125C18.1875 8.01409 18.1875 9.95863 19.3957 11.1668C20.6039 12.375 22.5485 12.375 26.4375 12.375H27.125" stroke="#141B34" stroke-width="2.0625" stroke-linecap="round" stroke-linejoin="round"/>
<path d="M27.4688 22H24.0312C23.2718 22 22.6562 22.6156 22.6562 23.375V26.125M22.6562 26.125V30.25M22.6562 26.125H26.7812M6.15625 30.25V26.8125M6.15625 26.8125V22H8.5625C9.89144 22 10.9688 23.0773 10.9688 24.4062C10.9688 25.7352 9.89144 26.8125 8.5625 26.8125H6.15625ZM14.4062 22H16.4688C17.9876 22 19.2188 23.2312 19.2188 24.75V27.5C19.2188 29.0188 17.9876 30.25 16.4688 30.25H14.4062V22Z" stroke="#141B34" stroke-width="2.0625" stroke-linecap="round" stroke-linejoin="round"/>
</svg>
