<svg width="16" height="23" viewBox="0 0 16 23" fill="none" xmlns="http://www.w3.org/2000/svg">
<path d="M1 8.5C1 5.20017 1 3.55025 2.02513 2.52513C3.05025 1.5 4.70017 1.5 8 1.5C11.2998 1.5 12.9497 1.5 13.9749 2.52513C15 3.55025 15 5.20017 15 8.5V14.5C15 17.7998 15 19.4497 13.9749 20.4749C12.9497 21.5 11.2998 21.5 8 21.5C4.70017 21.5 3.05025 21.5 2.02513 20.4749C1 19.4497 1 17.7998 1 14.5V8.5Z" stroke="#199491" stroke-width="1.5" stroke-linecap="round"/>
<path d="M7 18.5H9" stroke="#199491" stroke-width="1.5" stroke-linecap="round" stroke-linejoin="round"/>
<path d="M5 1.5L5.089 2.03402C5.28188 3.19129 5.37832 3.76993 5.77519 4.12204C6.1892 4.48934 6.7761 4.5 8 4.5C9.2239 4.5 9.8108 4.48934 10.2248 4.12204C10.6217 3.76993 10.7181 3.19129 10.911 2.03402L11 1.5" stroke="#199491" stroke-width="1.5" stroke-linejoin="round"/>
</svg>
