<svg width="22" height="21" viewBox="0 0 22 21" fill="none" xmlns="http://www.w3.org/2000/svg">
<path d="M13 7.5H17" stroke="#199491" stroke-width="1.5" stroke-linecap="round"/>
<path d="M13 11H16" stroke="#199491" stroke-width="1.5" stroke-linecap="round"/>
<path d="M16 1.5H6C3.23858 1.5 1 3.73858 1 6.5V14.5C1 17.2614 3.23858 19.5 6 19.5H16C18.7614 19.5 21 17.2614 21 14.5V6.5C21 3.73858 18.7614 1.5 16 1.5Z" stroke="#199491" stroke-width="1.5" stroke-linejoin="round"/>
<path d="M4 14.5C5.20831 11.9189 9.7122 11.7491 11 14.5" stroke="#199491" stroke-width="1.5" stroke-linecap="round" stroke-linejoin="round"/>
<path d="M9.5 7.5C9.5 8.60452 8.60457 9.50002 7.5 9.50002C6.39543 9.50002 5.5 8.60452 5.5 7.5C5.5 6.39543 6.39543 5.5 7.5 5.5C8.60457 5.5 9.5 6.39543 9.5 7.5Z" stroke="#199491" stroke-width="1.5"/>
</svg>
