<svg width="55" height="54" viewBox="0 0 55 54" fill="none" xmlns="http://www.w3.org/2000/svg">
<path d="M25.4166 29.2505C25.4166 28.0078 26.424 27.0005 27.6666 27.0005H27.6868C28.9295 27.0005 29.9368 28.0078 29.9368 29.2505C29.9368 30.4931 28.9295 31.5005 27.6868 31.5005H27.6666C26.424 31.5005 25.4166 30.4931 25.4166 29.2505Z" fill="#199491"/>
<path fill-rule="evenodd" clip-rule="evenodd" d="M36.6667 12.8977H29.3542V14.9065C29.3849 14.9213 29.4153 14.9364 29.4456 14.9515C29.9047 15.1822 30.4134 15.5093 30.9516 15.8554L35.7589 18.9458C36.7162 19.5611 37.5314 20.0852 38.1689 20.5858C38.8482 21.1192 39.4248 21.6995 39.8475 22.4737C40.2702 23.2479 40.4465 24.0467 40.5278 24.9066C40.6042 25.7135 40.6042 26.6826 40.6041 27.8206V27.9308C41.6217 28.183 42.5674 28.4214 43.4054 28.6703C44.5866 29.0212 45.6972 29.432 46.6358 30.0295C47.6122 30.6511 48.3968 31.4706 48.9115 32.5917C49.4105 33.6782 49.6045 34.9365 49.6045 36.366V47.813H50.1666C51.0986 47.813 51.8541 48.5685 51.8541 49.5005C51.8541 50.4325 51.0986 51.188 50.1666 51.188H47.9541L47.917 51.1884L47.88 51.188H7.4537L7.41663 51.1884L7.37956 51.188H5.16663C4.23465 51.188 3.47913 50.4325 3.47913 49.5005C3.47913 48.5685 4.23465 47.813 5.16663 47.813H5.72913V36.366C5.72913 34.9365 5.92319 33.6782 6.4221 32.5917C6.93687 31.4706 7.72144 30.6511 8.69788 30.0295C9.63644 29.432 10.747 29.0212 11.9282 28.6703C12.7661 28.4214 13.7117 28.1831 14.7291 27.9309V27.8206C14.7291 26.6827 14.7291 25.7135 14.8054 24.9066C14.8868 24.0467 15.0631 23.2479 15.4858 22.4737C15.9085 21.6995 16.4851 21.1192 17.1644 20.5858C17.8018 20.0852 18.6171 19.5611 19.5743 18.9458L24.3816 15.8554C24.9199 15.5093 25.4285 15.1822 25.8877 14.9515C25.918 14.9363 25.9484 14.9213 25.9792 14.9065L25.9791 6.60601C25.979 6.14129 25.9788 5.64057 26.0352 5.21819C26.1012 4.72471 26.2706 4.09382 26.7994 3.56191C27.6997 2.65623 28.9535 2.77888 29.5766 2.88814C30.3423 3.02239 31.1657 3.32527 31.9094 3.64987C33.4174 4.30812 34.9685 5.2228 35.7971 5.73297C37.9508 7.05914 38.3542 9.55203 38.3542 11.2102C38.3542 12.1422 37.5986 12.8977 36.6667 12.8977ZM30.5592 6.74304C30.093 6.53952 29.686 6.38978 29.3549 6.2968C29.3542 6.41123 29.3542 6.53854 29.3542 6.6835V9.52269H34.7196C34.5547 9.09152 34.3177 8.78553 34.0275 8.60684C33.2354 8.11914 31.8456 7.30454 30.5592 6.74304ZM27.4028 17.9673C27.1232 18.1078 26.7667 18.3344 26.1457 18.7336L21.4623 21.7443C20.4251 22.4111 19.7458 22.8499 19.2488 23.2402C18.7797 23.6086 18.5757 23.8572 18.4481 24.0909C18.3205 24.3247 18.2216 24.6307 18.1654 25.2246C18.1059 25.8537 18.1041 26.6624 18.1041 27.8954V29.2157C18.1047 29.2401 18.1047 29.2644 18.1041 29.2886V47.813H25.9791V40.5005C25.9791 39.5685 26.7346 38.813 27.6666 38.813C28.5986 38.813 29.3541 39.5685 29.3541 40.5005V47.813H37.2291V27.8954C37.2291 26.6624 37.2274 25.8537 37.1678 25.2246C37.1116 24.6307 37.0128 24.3247 36.8852 24.0909C36.7576 23.8572 36.5536 23.6086 36.0845 23.2402C35.5874 22.8499 34.9082 22.4111 33.8709 21.7443L29.1875 18.7336C28.5666 18.3344 28.2101 18.1078 27.9304 17.9673C27.8048 17.9042 27.7334 17.879 27.6974 17.8688C27.6807 17.864 27.6721 17.8627 27.6698 17.8623L27.6666 17.8621L27.6634 17.8623C27.6611 17.8627 27.6526 17.864 27.6358 17.8688C27.5999 17.879 27.5285 17.9042 27.4028 17.9673ZM40.6041 47.813H46.2295V36.366C46.2295 35.2174 46.0694 34.49 45.8444 34C45.6353 33.5445 45.3261 33.1966 44.8234 32.8766C44.2829 32.5325 43.5289 32.2277 42.4444 31.9056C41.8859 31.7397 41.2777 31.5796 40.6041 31.4095V47.813ZM9.10413 47.813H14.7291L14.7291 31.4096C14.0557 31.5796 13.4477 31.7397 12.8892 31.9056C11.8048 32.2277 11.0508 32.5325 10.5102 32.8766C10.0075 33.1966 9.69837 33.5445 9.48922 34C9.2642 34.49 9.10413 35.2174 9.10413 36.366V47.813Z" fill="#199491"/>
</svg>
