<svg width="40" height="36" viewBox="0 0 40 36" fill="none" xmlns="http://www.w3.org/2000/svg">
<g clip-path="url(#clip0_1107_893)">
<path d="M19.9998 20.5001C21.3805 20.5001 22.4998 19.3808 22.4998 18.0001C22.4998 16.6194 21.3805 15.5001 19.9998 15.5001C18.6191 15.5001 17.4998 16.6194 17.4998 18.0001C17.4998 19.3808 18.6191 20.5001 19.9998 20.5001Z" stroke="#717680" stroke-width="1.67" stroke-linecap="round" stroke-linejoin="round"/>
<path d="M25.6059 20.2728C25.5051 20.5013 25.475 20.7548 25.5195 21.0005C25.5641 21.2463 25.6812 21.4731 25.8559 21.6516L25.9014 21.6971C26.0422 21.8378 26.154 22.0049 26.2302 22.1888C26.3065 22.3727 26.3457 22.5699 26.3457 22.769C26.3457 22.9681 26.3065 23.1653 26.2302 23.3492C26.154 23.5332 26.0422 23.7003 25.9014 23.841C25.7606 23.9819 25.5935 24.0936 25.4096 24.1699C25.2257 24.2461 25.0285 24.2854 24.8294 24.2854C24.6303 24.2854 24.4331 24.2461 24.2492 24.1699C24.0652 24.0936 23.8981 23.9819 23.7574 23.841L23.712 23.7955C23.5334 23.6209 23.3066 23.5037 23.0609 23.4592C22.8151 23.4146 22.5617 23.4447 22.3332 23.5455C22.1091 23.6416 21.918 23.801 21.7834 24.0043C21.6488 24.2075 21.5766 24.4457 21.5756 24.6895V24.8183C21.5756 25.2201 21.416 25.6055 21.1318 25.8896C20.8477 26.1738 20.4623 26.3334 20.0604 26.3334C19.6586 26.3334 19.2732 26.1738 18.9891 25.8896C18.7049 25.6055 18.5453 25.2201 18.5453 24.8183V24.7501C18.5394 24.4993 18.4583 24.2561 18.3123 24.0521C18.1664 23.8481 17.9625 23.6927 17.7271 23.6061C17.4986 23.5053 17.2451 23.4752 16.9994 23.5198C16.7536 23.5643 16.5269 23.6815 16.3483 23.8561L16.3029 23.9016C16.1622 24.0425 15.995 24.1542 15.8111 24.2305C15.6272 24.3067 15.43 24.346 15.2309 24.346C15.0318 24.346 14.8346 24.3067 14.6507 24.2305C14.4667 24.1542 14.2996 24.0425 14.1589 23.9016C14.0181 23.7609 13.9063 23.5938 13.83 23.4098C13.7538 23.2259 13.7146 23.0287 13.7146 22.8296C13.7146 22.6305 13.7538 22.4334 13.83 22.2494C13.9063 22.0655 14.0181 21.8984 14.1589 21.7577L14.2044 21.7122C14.379 21.5337 14.4962 21.3069 14.5407 21.0611C14.5853 20.8154 14.5552 20.5619 14.4544 20.3334C14.3584 20.1093 14.1989 19.9183 13.9956 19.7836C13.7924 19.649 13.5542 19.5768 13.3104 19.5758H13.1817C12.7798 19.5758 12.3944 19.4162 12.1103 19.1321C11.8261 18.8479 11.6665 18.4625 11.6665 18.0607C11.6665 17.6588 11.8261 17.2735 12.1103 16.9893C12.3944 16.7052 12.7798 16.5455 13.1817 16.5455H13.2498C13.5006 16.5397 13.7438 16.4585 13.9478 16.3126C14.1518 16.1667 14.3072 15.9628 14.3938 15.7274C14.4946 15.4989 14.5247 15.2454 14.4801 14.9996C14.4356 14.7539 14.3184 14.5271 14.1438 14.3486L14.0983 14.3031C13.9574 14.1624 13.8457 13.9953 13.7694 13.8114C13.6932 13.6274 13.6539 13.4303 13.6539 13.2311C13.6539 13.032 13.6932 12.8349 13.7694 12.6509C13.8457 12.467 13.9574 12.2999 14.0983 12.1592C14.239 12.0183 14.4061 11.9065 14.5901 11.8303C14.774 11.754 14.9712 11.7148 15.1703 11.7148C15.3694 11.7148 15.5666 11.754 15.7505 11.8303C15.9344 11.9065 16.1015 12.0183 16.2423 12.1592L16.2877 12.2046C16.4663 12.3793 16.693 12.4964 16.9388 12.541C17.1845 12.5856 17.438 12.5555 17.6665 12.4546H17.7271C17.9512 12.3586 18.1423 12.1991 18.2769 11.9959C18.4115 11.7926 18.4837 11.5545 18.4847 11.3107V11.1819C18.4847 10.7801 18.6443 10.3947 18.9285 10.1105C19.2126 9.82638 19.598 9.66675 19.9998 9.66675C20.4017 9.66675 20.7871 9.82638 21.0712 10.1105C21.3554 10.3947 21.515 10.7801 21.515 11.1819V11.2501C21.516 11.4939 21.5882 11.732 21.7228 11.9353C21.8574 12.1385 22.0485 12.298 22.2726 12.394C22.5011 12.4949 22.7545 12.5249 23.0003 12.4804C23.246 12.4358 23.4728 12.3187 23.6514 12.144L23.6968 12.0986C23.8375 11.9577 24.0046 11.8459 24.1886 11.7697C24.3725 11.6934 24.5697 11.6542 24.7688 11.6542C24.9679 11.6542 25.1651 11.6934 25.349 11.7697C25.5329 11.8459 25.7 11.9577 25.8407 12.0986C25.9816 12.2393 26.0934 12.4064 26.1696 12.5903C26.2459 12.7743 26.2851 12.9714 26.2851 13.1705C26.2851 13.3697 26.2459 13.5668 26.1696 13.7507C26.0934 13.9347 25.9816 14.1018 25.8407 14.2425L25.7953 14.288C25.6206 14.4665 25.5035 14.6933 25.4589 14.939C25.4144 15.1848 25.4444 15.4383 25.5453 15.6667V15.7274C25.6413 15.9514 25.8008 16.1425 26.004 16.2771C26.2073 16.4117 26.4455 16.484 26.6892 16.4849H26.818C27.2199 16.4849 27.6052 16.6446 27.8894 16.9287C28.1735 17.2129 28.3332 17.5982 28.3332 18.0001C28.3332 18.4019 28.1735 18.7873 27.8894 19.0715C27.6052 19.3556 27.2199 19.5152 26.818 19.5152H26.7498C26.5061 19.5162 26.2679 19.5884 26.0646 19.723C25.8614 19.8576 25.7019 20.0487 25.6059 20.2728Z" stroke="#717680" stroke-width="1.67" stroke-linecap="round" stroke-linejoin="round"/>
</g>
<defs>
<clipPath id="clip0_1107_893">
<rect width="20" height="20" fill="white" transform="translate(10 8)"/>
</clipPath>
</defs>
</svg>
