<svg width="24" height="24" viewBox="0 0 24 24" fill="none" xmlns="http://www.w3.org/2000/svg">
<path d="M14.508 16.4482C14.8127 16.7288 14.8323 17.2032 14.5518 17.508C14.2712 17.8127 13.7964 17.832 13.4917 17.5514L13.4883 17.5484L13.479 17.5397L13.4439 17.5071C13.4134 17.4787 13.3692 17.4374 13.3132 17.3846C13.2013 17.2789 13.0421 17.1271 12.8513 16.9409C12.4703 16.5693 11.9603 16.0579 11.4484 15.5023C10.9395 14.9499 10.4147 14.3389 10.0126 13.7701C9.81178 13.486 9.63031 13.1968 9.49633 12.919C9.36934 12.6557 9.24999 12.3325 9.25 12C9.25 11.6675 9.36935 11.3444 9.49633 11.0811C9.63031 10.8033 9.81178 10.514 10.0125 10.23C10.4147 9.66113 10.9394 9.05012 11.4484 8.49772C11.9603 7.94216 12.4703 7.43072 12.8513 7.05911C13.0421 6.87297 13.2013 6.72113 13.3132 6.61547C13.3692 6.56262 13.4134 6.52127 13.4438 6.49292L13.4789 6.46029L13.4883 6.45162L13.492 6.44823C13.7967 6.16768 14.2712 6.18729 14.5517 6.49203C14.8323 6.79676 14.8123 7.27155 14.5076 7.5521L14.498 7.56093L14.4663 7.59045C14.4381 7.61667 14.3964 7.65573 14.343 7.70615C14.2361 7.80701 14.0829 7.95316 13.8987 8.13283C13.5296 8.49286 13.0397 8.98438 12.5515 9.51413C12.0605 10.047 11.5853 10.6037 11.2374 11.0958C11.0632 11.3423 10.9322 11.5569 10.8474 11.7327C10.7625 11.9088 10.7513 11.9906 10.7501 11.9994V12.0007C10.7513 12.0095 10.7625 12.0912 10.8474 12.2674C10.9322 12.4432 11.0632 12.6578 11.2374 12.9042C11.5853 13.3964 12.0605 13.953 12.5516 14.4859C13.0397 15.0156 13.5296 15.5072 13.8987 15.8672C14.0829 16.0469 14.2362 16.193 14.343 16.2939C14.3964 16.3443 14.4381 16.3833 14.4663 16.4096L14.4981 16.4391L14.5058 16.4463L14.508 16.4482Z" fill="#161616"/>
<path fill-rule="evenodd" clip-rule="evenodd" d="M11.9428 1.75H12.0572C14.2479 1.74999 15.9686 1.74998 17.312 1.93059C18.6886 2.11568 19.7809 2.50272 20.6391 3.36091C21.4973 4.21911 21.8843 5.31137 22.0694 6.68802C22.25 8.03144 22.25 9.75212 22.25 11.9428V12.0572C22.25 14.2479 22.25 15.9686 22.0694 17.312C21.8843 18.6886 21.4973 19.7809 20.6391 20.6391C19.7809 21.4973 18.6886 21.8843 17.312 22.0694C15.9686 22.25 14.2479 22.25 12.0572 22.25H11.9428C9.75214 22.25 8.03144 22.25 6.68802 22.0694C5.31137 21.8843 4.21911 21.4973 3.36091 20.6391C2.50271 19.7809 2.11568 18.6886 1.93059 17.312C1.74998 15.9686 1.74999 14.2479 1.75 12.0572V11.9428C1.74999 9.75214 1.74998 8.03144 1.93059 6.68802C2.11568 5.31137 2.50271 4.21911 3.36091 3.36091C4.21911 2.50272 5.31137 2.11568 6.68802 1.93059C8.03144 1.74998 9.75212 1.74999 11.9428 1.75ZM19.5784 4.42157C19.0454 3.88853 18.3224 3.57994 17.1121 3.41722C15.8802 3.25159 14.2604 3.25 12 3.25C9.73963 3.25 8.11979 3.25159 6.88789 3.41722C5.67757 3.57994 4.95462 3.88853 4.42157 4.42157C3.88853 4.95462 3.57994 5.67757 3.41722 6.8879C3.25159 8.11979 3.25 9.73963 3.25 12C3.25 14.2604 3.25159 15.8802 3.41722 17.1121C3.57994 18.3224 3.88853 19.0454 4.42157 19.5784C4.95462 20.1115 5.67757 20.4201 6.88789 20.5828C8.11979 20.7484 9.73963 20.75 12 20.75C14.2604 20.75 15.8802 20.7484 17.1121 20.5828C18.3224 20.4201 19.0454 20.1115 19.5784 19.5784C20.1115 19.0454 20.4201 18.3224 20.5828 17.1121C20.7484 15.8802 20.75 14.2604 20.75 12C20.75 9.73963 20.7484 8.11979 20.5828 6.8879C20.4201 5.67757 20.1115 4.95462 19.5784 4.42157Z" fill="#161616"/>
</svg>
