<svg width="26" height="26" viewBox="0 0 26 26" fill="none" xmlns="http://www.w3.org/2000/svg">
<path d="M1 12.9062C1 7.29359 1 4.48727 2.74363 2.74363C4.48727 1 7.29359 1 12.9062 1C18.5189 1 21.3252 1 23.0689 2.74363C24.8125 4.48727 24.8125 7.29359 24.8125 12.9062C24.8125 18.5189 24.8125 21.3252 23.0689 23.0689C21.3252 24.8125 18.5189 24.8125 12.9062 24.8125C7.29359 24.8125 4.48727 24.8125 2.74363 23.0689C1 21.3252 1 18.5189 1 12.9062Z" stroke="#4D5761" stroke-width="1.5"/>
<path d="M7.89307 12.9062H17.9194M7.89307 12.9062C7.89307 12.0286 10.3925 10.389 11.0263 9.77295M7.89307 12.9062C7.89307 13.7837 10.3925 15.4234 11.0263 16.0394" stroke="#4D5761" stroke-width="1.5" stroke-linecap="round" stroke-linejoin="round"/>
</svg>
