<svg width="54" height="54" viewBox="0 0 54 54" fill="none" xmlns="http://www.w3.org/2000/svg">
<path fill-rule="evenodd" clip-rule="evenodd" d="M17.4228 7.4141C17.7953 7.27863 18.2037 7.27863 18.5762 7.4141L30.9512 11.9141C31.5628 12.1365 31.992 12.6908 32.0543 13.3385C32.1165 13.9863 31.8008 14.6122 31.2427 14.947L26.437 17.8304V21.125C26.437 25.8646 22.7167 29.8125 17.9995 29.8125C13.2823 29.8125 9.56201 25.8646 9.56201 21.125V17.8304L7.31201 16.4804V22.5C7.31201 23.432 6.55649 24.1875 5.62451 24.1875C4.69253 24.1875 3.93701 23.432 3.93701 22.5V13.5C3.93701 12.7904 4.38094 12.1566 5.04782 11.9141L17.4228 7.4141ZM22.8993 21.3155C22.9547 21.3307 23.0073 21.3456 23.0572 21.3604C22.9391 24.2382 20.6659 26.4375 17.9995 26.4375C15.3331 26.4375 13.0599 24.2382 12.9418 21.3604C12.9917 21.3456 13.0443 21.3307 13.0998 21.3155C13.9579 21.0815 15.4918 20.8125 17.9995 20.8125C20.5072 20.8125 22.0412 21.0815 22.8993 21.3155ZM9.53009 13.8754L12.1177 15.428C12.626 15.733 12.937 16.2822 12.937 16.875V17.8846C14.1187 17.6336 15.7581 17.4375 17.9995 17.4375C20.241 17.4375 21.8803 17.6336 23.062 17.8846V16.875C23.062 16.2822 23.373 15.733 23.8813 15.428L26.4689 13.8754L17.9995 10.7956L9.53009 13.8754Z" fill="#199491"/>
<path fill-rule="evenodd" clip-rule="evenodd" d="M39.9671 15.2949C39.585 15.1517 39.164 15.1517 38.782 15.2949L29.782 18.6699C29.1648 18.9014 28.7389 19.4711 28.6914 20.1285C28.644 20.786 28.9837 21.4109 29.5613 21.7286L32.7779 23.4978V25.4659C32.7779 29.1091 35.7313 32.0625 39.3745 32.0625C43.0177 32.0625 45.9711 29.1091 45.9711 25.4659V23.4978L49.1878 21.7286C49.7654 21.4109 50.1051 20.786 50.0577 20.1285C50.0102 19.4711 49.5843 18.9014 48.9671 18.6699L39.9671 15.2949ZM39.3745 28.6875C37.7718 28.6875 36.4424 27.5171 36.1944 25.9844C36.8176 25.8478 37.8309 25.7096 39.3745 25.7096C40.9181 25.7096 41.9314 25.8478 42.5546 25.9844C42.3067 27.5171 40.9773 28.6875 39.3745 28.6875ZM39.3745 22.3346C40.7132 22.3346 41.7689 22.4265 42.5961 22.5593V22.5C42.5961 21.8846 42.9311 21.318 43.4704 21.0214L44.3441 20.5408L39.3745 18.6773L34.405 20.5408L35.2787 21.0214C35.8179 21.318 36.1529 21.8846 36.1529 22.5V22.5593C36.9802 22.4265 38.0358 22.3346 39.3745 22.3346Z" fill="#199491"/>
<path fill-rule="evenodd" clip-rule="evenodd" d="M9.0439 34.36C14.5315 31.2967 21.4686 31.2967 26.9562 34.36C27.1137 34.4479 27.3146 34.554 27.5466 34.6765C28.6081 35.237 30.3198 36.1407 31.49 37.2145C32.2147 37.8795 33.0157 38.8511 33.1639 40.1221C33.3264 41.5156 32.6583 42.7372 31.5552 43.7225C29.7363 45.3471 27.5074 46.6875 24.6138 46.6875H11.3864C8.49269 46.6875 6.26384 45.3471 4.44494 43.7225C3.34179 42.7372 2.67376 41.5156 2.83623 40.1221C2.98443 38.8511 3.78543 37.8795 4.51013 37.2145C5.68029 36.1407 7.39201 35.237 8.45352 34.6765C8.68552 34.554 8.88646 34.4479 9.0439 34.36ZM25.3112 37.3069C20.846 34.8144 15.1541 34.8144 10.689 37.3069C10.4147 37.46 10.1225 37.6156 9.8225 37.7754C8.76143 38.3404 7.60234 38.9576 6.79202 39.7012C6.28404 40.1674 6.19678 40.4421 6.18852 40.513C6.18702 40.5252 6.18279 40.5595 6.22136 40.6418C6.26897 40.7432 6.39174 40.9361 6.69317 41.2053C8.18522 42.538 9.64391 43.3125 11.3864 43.3125H24.6138C26.3562 43.3125 27.8149 42.538 29.307 41.2053C29.6084 40.9361 29.7312 40.7432 29.7788 40.6418C29.8173 40.5595 29.8133 40.5265 29.8118 40.5143C29.8035 40.4434 29.7161 40.1674 29.2081 39.7012C28.3978 38.9576 27.2389 38.3405 26.1778 37.7755C25.8777 37.6157 25.5855 37.4601 25.3112 37.3069Z" fill="#199491"/>
<path fill-rule="evenodd" clip-rule="evenodd" d="M36.4733 38.1015C39.1787 37.311 42.1558 37.6539 44.6124 39.1167C44.8359 39.2497 45.0673 39.3812 45.3001 39.5136C46.0873 39.9612 46.8907 40.418 47.4569 40.9722C47.7062 41.2162 47.7832 41.3653 47.8056 41.4188C47.7802 41.4733 47.7107 41.5818 47.5348 41.7493C46.4458 42.7868 45.4603 43.3124 44.3358 43.3124H36C35.068 43.3124 34.3125 44.068 34.3125 44.9999C34.3125 45.9319 35.068 46.6874 36 46.6874H44.3358C46.6885 46.6874 48.4687 45.5211 49.8628 44.1929C50.7552 43.3427 51.301 42.2795 51.1688 41.0706C51.0481 39.9659 50.3942 39.1246 49.8177 38.5603C48.8954 37.6575 47.5388 36.8948 46.7504 36.4515C46.5857 36.3589 46.445 36.2799 46.3391 36.2168C43.0568 34.2624 39.1086 33.8153 35.5266 34.862C34.6321 35.1234 34.1188 36.0605 34.3802 36.955C34.6416 37.8496 35.5787 38.3629 36.4733 38.1015ZM47.8127 41.4023C47.8193 41.3851 47.8198 41.3767 47.8184 41.3768C47.8179 41.3769 47.817 41.3783 47.8161 41.381C47.8147 41.3852 47.8133 41.3923 47.8127 41.4023Z" fill="#199491"/>
</svg>
