<svg width="55" height="54" viewBox="0 0 55 54" fill="none" xmlns="http://www.w3.org/2000/svg">
<path d="M36.3333 6.18751C38.5023 6.18751 39.9593 6.19109 41.0461 6.33721C42.0844 6.47681 42.5288 6.71806 42.822 7.01127C43.1152 7.30448 43.3565 7.74885 43.496 8.78714C43.6422 9.87397 43.6458 11.331 43.6458 13.5V27C43.6458 29.169 43.6422 30.626 43.496 31.7129C43.3565 32.7512 43.1152 33.1955 42.822 33.4887C42.5288 33.782 42.0844 34.0232 41.0461 34.1628C39.9593 34.3089 38.5023 34.3125 36.3333 34.3125H20.5833C19.6513 34.3125 18.8958 35.068 18.8958 36C18.8958 36.932 19.6513 37.6875 20.5833 37.6875L36.4502 37.6875C38.4718 37.6876 40.1576 37.6876 41.4958 37.5077C42.9084 37.3178 44.1837 36.9 45.2085 35.8752C46.2333 34.8504 46.651 33.5751 46.841 32.1626C47.0209 30.8243 47.0208 29.1386 47.0208 27.117V13.383C47.0208 11.3614 47.0209 9.67569 46.841 8.33743C46.651 6.92489 46.2333 5.64959 45.2085 4.62478C44.1837 3.59998 42.9084 3.18222 41.4958 2.99231C40.1576 2.81239 38.4719 2.81244 36.4503 2.8125L4.83325 2.81251C3.90127 2.81251 3.14575 3.56803 3.14575 4.50001C3.14575 5.43199 3.90127 6.18751 4.83325 6.18751H36.3333Z" fill="#199491"/>
<path d="M22.8333 12.9375C21.9013 12.9375 21.1458 13.693 21.1458 14.625C21.1458 15.557 21.9013 16.3125 22.8333 16.3125H36.3333C37.2652 16.3125 38.0208 15.557 38.0208 14.625C38.0208 13.693 37.2652 12.9375 36.3333 12.9375H22.8333Z" fill="#199491"/>
<path fill-rule="evenodd" clip-rule="evenodd" d="M9.23258 23.0625L27.3333 23.0625C28.2652 23.0625 29.0208 23.818 29.0208 24.75C29.0208 25.682 28.2652 26.4375 27.3333 26.4375H15.5208V49.5C15.5208 50.432 14.7652 51.1875 13.8333 51.1875C12.9013 51.1875 12.1458 50.432 12.1458 49.5V39.9375H6.52077V49.5C6.52077 50.432 5.76525 51.1875 4.83327 51.1875C3.90129 51.1875 3.14577 50.432 3.14577 49.5L3.14576 29.1493C3.14564 28.1755 3.14554 27.2826 3.24319 26.5563C3.35073 25.7565 3.60373 24.9111 4.29903 24.2158C4.99434 23.5205 5.83972 23.2675 6.63955 23.1599C7.36588 23.0623 8.25875 23.0624 9.23258 23.0625ZM12.1458 36.5625V26.4375H9.33327C8.2249 26.4375 7.56339 26.4411 7.08926 26.5048C6.87201 26.5341 6.76319 26.5685 6.71419 26.5886C6.70284 26.5933 6.69538 26.5969 6.69103 26.5992L6.68555 26.6023L6.68245 26.6078C6.68018 26.6121 6.67654 26.6196 6.67187 26.6309C6.65171 26.6799 6.61731 26.7888 6.5881 27.006C6.52435 27.4801 6.52077 28.1417 6.52077 29.25V36.5625H12.1458Z" fill="#199491"/>
<path fill-rule="evenodd" clip-rule="evenodd" d="M9.33325 8.4375C5.91599 8.4375 3.14575 11.2077 3.14575 14.625C3.14575 18.0423 5.91599 20.8125 9.33325 20.8125C12.7505 20.8125 15.5208 18.0423 15.5208 14.625C15.5208 11.2077 12.7505 8.4375 9.33325 8.4375ZM6.52075 14.625C6.52075 13.0717 7.77995 11.8125 9.33325 11.8125C10.8866 11.8125 12.1458 13.0717 12.1458 14.625C12.1458 16.1783 10.8866 17.4375 9.33325 17.4375C7.77995 17.4375 6.52075 16.1783 6.52075 14.625Z" fill="#199491"/>
</svg>
