<svg width="45" height="111" viewBox="0 0 45 111" fill="none" xmlns="http://www.w3.org/2000/svg">
<path d="M44.3536 107.354C44.5488 107.158 44.5488 106.842 44.3536 106.646L41.1716 103.464C40.9763 103.269 40.6597 103.269 40.4645 103.464C40.2692 103.66 40.2692 103.976 40.4645 104.172L43.2929 107L40.4645 109.828C40.2692 110.024 40.2692 110.34 40.4645 110.536C40.6597 110.731 40.9763 110.731 41.1716 110.536L44.3536 107.354ZM44 1V0.5H15V1V1.5H44V1ZM1 15H0.5V93H1H1.5V15H1ZM15 107V107.5H44V107V106.5H15V107ZM1 93H0.5C0.5 101.008 6.99187 107.5 15 107.5V107V106.5C7.54416 106.5 1.5 100.456 1.5 93H1ZM15 1V0.5C6.99187 0.5 0.5 6.99187 0.5 15H1H1.5C1.5 7.54416 7.54416 1.5 15 1.5V1Z" fill="black"/>
</svg>
