<svg width="248" height="73" viewBox="0 0 248 73" fill="none" xmlns="http://www.w3.org/2000/svg">
<path d="M214.047 68.5L214.047 69L214.047 68.5ZM0.646393 68.1464C0.451126 68.3417 0.451126 68.6583 0.646393 68.8535L3.82837 72.0355C4.02362 72.2308 4.34021 72.2308 4.53548 72.0355C4.73073 71.8403 4.73073 71.5237 4.53548 71.3284L1.70705 68.5L4.53548 65.6716C4.73073 65.4763 4.73073 65.1597 4.53548 64.9645C4.34021 64.7692 4.02364 64.7692 3.82837 64.9645L0.646393 68.1464ZM214.047 68.5L214.047 69L233 69L233 68.5L233 68L214.047 68L214.047 68.5ZM247 54.5L247.5 54.5L247.5 -4.37114e-08L247 0L246.5 4.37114e-08L246.5 54.5L247 54.5ZM214.047 68.5L214.047 68L0.999939 68L0.999939 68.5L0.999939 69L214.047 69L214.047 68.5ZM233 68.5L233 69C241.008 69 247.5 62.5081 247.5 54.5L247 54.5L246.5 54.5C246.5 61.9559 240.456 68 233 68L233 68.5Z" fill="black"/>
</svg>
