<svg width="158" height="76" viewBox="0 0 158 76" fill="none" xmlns="http://www.w3.org/2000/svg">
<path d="M46.7396 57.4944C46.7396 51.6087 43.2322 47.6069 36.7185 47.6069C30.9197 47.6069 27.5058 50.9339 27.0115 56.0113H30.9664C31.3272 52.2834 33.6654 50.8404 36.7653 50.8404C40.7203 50.8404 42.5642 52.7711 42.7445 56.8196L33.9795 57.6748C28.675 58.1691 26.5171 60.641 26.5171 64.1951C26.5171 66.5334 27.5058 70.8491 34.0663 70.8491C39.5044 70.8491 41.8894 67.6557 42.7379 64.2419H43.8602L43.2322 66.6269V67.7025C43.2322 69.4128 44.221 70.4015 45.9312 70.4015H50.0198V66.9877H46.7396V57.5011V57.4944ZM34.6943 67.5622C32.1289 67.5622 30.4654 66.2595 30.4654 63.6941C30.4654 61.5362 31.9018 60.7746 34.6475 60.5007L42.7379 59.6456C42.7379 64.1417 39.5445 67.5555 34.6943 67.5555V67.5622Z" fill="white"/>
<path d="M67.243 47.6068C62.3862 47.6068 59.5535 50.4394 58.6583 54.4812H57.536L58.2107 51.7822V48.0544H54.209V70.3947H58.2107V60.5941C58.2107 54.5748 61.4442 51.0206 66.1207 51.0206C69.8953 51.0206 71.6924 52.771 71.6924 57.4007V70.388H75.6474V56.8596C75.6474 50.5663 72.3204 47.6001 67.243 47.6001V47.6068Z" fill="white"/>
<path d="M91.5138 67.6558C86.8841 67.6558 84.5926 64.3288 84.459 59.9662H102.21V58.5299C102.21 51.6087 97.8939 47.6069 91.2866 47.6069C84.6794 47.6069 80.5908 51.6955 80.5908 58.9307C80.5908 65.5379 84.2786 70.8424 91.5605 70.8424C98.435 70.8424 101.401 66.7071 102.303 62.5717H98.3481C97.5865 65.6716 95.3352 67.6491 91.5138 67.6491V67.6558ZM91.2866 50.7535C95.2884 50.7535 98.0275 53.0918 98.3014 57.1336H84.5057C84.8197 53.0918 87.6056 50.7535 91.2933 50.7535H91.2866Z" fill="white"/>
<path d="M126.982 57.4944C126.982 51.6087 123.474 47.6069 116.961 47.6069C111.162 47.6069 107.748 50.9339 107.254 56.0113H111.209C111.569 52.2834 113.908 50.8404 117.008 50.8404C120.962 50.8404 122.806 52.7711 122.987 56.8196L114.222 57.6748C108.917 58.1691 106.759 60.641 106.759 64.1951C106.759 66.5334 107.748 70.8491 114.308 70.8491C119.747 70.8491 122.132 67.6557 122.98 64.2419H124.102L123.474 66.6269V67.7025C123.474 69.4128 124.463 70.4015 126.173 70.4015H130.262V66.9877H126.982V57.5011V57.4944ZM114.936 67.5622C112.371 67.5622 110.708 66.2595 110.708 63.6941C110.708 61.5362 112.144 60.7746 114.89 60.5007L122.98 59.6456C122.98 64.1417 119.787 67.5555 114.936 67.5555V67.5622Z" fill="white"/>
<path d="M147.706 47.6069C142.849 47.6069 139.882 50.4395 138.894 54.4813H137.725L138.446 51.7823V43.5383H134.444V70.3948H138.446V60.9082C138.446 54.8889 141.459 51.0207 146.309 51.0207C150.131 51.0207 151.881 52.8178 151.881 57.4008V70.3881H155.836V56.9465C155.836 50.9205 152.783 47.5935 147.699 47.5935L147.706 47.6069Z" fill="white"/>
<path d="M17.5651 57.8551C17.5651 63.8744 14.3316 67.4285 9.65511 67.4285C5.88051 67.4285 4.0834 65.6782 4.0834 61.0417V48.0544H0.128418V61.5829C0.128418 67.8761 3.45541 70.8424 8.53275 70.8424C13.6101 70.8424 16.2156 68.0097 17.1175 63.9679H18.2398L17.5651 66.6669V75.2182H21.5668V48.0611H17.5651V57.8617V57.8551Z" fill="white"/>
<path d="M118.003 28.587L117.375 25.928H118.457C119.359 29.9832 122.198 32.8292 127.068 32.8292C127.068 32.8292 127.068 32.8292 127.075 32.8292H147.358C152.502 32.8292 155.835 29.8095 155.835 23.543V9.96781H151.82V23.0019C151.82 27.5782 150.077 29.382 146.289 29.402H125.899C121.276 29.382 118.003 25.8278 118.003 19.7551V2.27832H114.034V32.3816H118.003V28.5936V28.587Z" fill="white"/>
<path d="M13.1025 6.55387C14.7927 6.55387 16.1489 5.31795 16.1489 3.66781C16.1489 2.01767 14.7927 0.781738 13.1025 0.781738C11.4123 0.781738 10.0962 2.01767 10.0962 3.66781C10.0962 5.31795 11.3722 6.55387 13.1025 6.55387Z" fill="white"/>
<path d="M4.57121 6.55387C6.30151 6.55387 7.6243 5.31795 7.6243 3.66781C7.6243 2.01767 6.30819 0.781738 4.57121 0.781738C2.83422 0.781738 1.60498 2.01767 1.60498 3.66781C1.60498 5.31795 2.88099 6.55387 4.57121 6.55387Z" fill="white"/>
<path d="M142.555 38.9019C142.555 40.5521 143.831 41.788 145.521 41.788C147.211 41.788 148.574 40.5521 148.574 38.9019C148.574 37.2518 147.258 36.0159 145.521 36.0159C143.784 36.0159 142.555 37.2518 142.555 38.9019Z" fill="white"/>
<path d="M154.052 36.0225C152.322 36.0225 151.046 37.2584 151.046 38.9085C151.046 40.5586 152.322 41.7946 154.052 41.7946C155.783 41.7946 157.099 40.5586 157.099 38.9085C157.099 37.2584 155.742 36.0225 154.052 36.0225Z" fill="white"/>
<path d="M100.874 1.22925C99.1432 1.22925 97.8672 2.46517 97.8672 4.11531C97.8672 5.76544 99.1432 7.00138 100.874 7.00138C102.604 7.00138 103.92 5.76544 103.92 4.11531C103.92 2.46517 102.564 1.22925 100.874 1.22925Z" fill="white"/>
<path d="M99.17 23.4428C99.17 28.0391 97.4129 29.8496 93.5782 29.8496H69.8082C68.9665 29.8496 68.118 29.6759 67.2896 29.5089C66.4612 29.3418 65.6261 29.108 64.7843 28.8074C66.4679 27.6316 67.9176 26.2353 69.1335 24.6119C70.3494 22.9885 71.2847 21.2048 71.9327 19.2673C72.5807 17.3299 72.9014 15.319 72.9014 13.248C71.4584 12.2593 69.7748 11.4576 67.8508 10.8563C65.9268 10.2551 64.0161 9.95444 62.1254 9.95444C60.7158 9.95444 59.2995 10.1548 57.8832 10.5624C56.4669 10.9699 55.124 11.5378 53.848 12.2726C52.572 13.0075 51.3762 13.8894 50.2605 14.9115C50.5344 16.5349 51.0889 18.2586 51.9307 20.0757C52.7724 21.8929 53.7946 23.6031 54.9971 25.1931C55.5984 25.9748 56.1996 26.6763 56.8009 27.2909C57.4022 27.9055 57.9901 28.4266 58.5579 28.8475C57.8631 29.1481 57.0681 29.3753 56.1662 29.5222C55.2643 29.6692 54.309 29.8362 53.2267 29.8362H23.9318H18.9814V8.93896H15.2068V11.7315H12.274C9.78874 11.7315 7.63755 12.1925 5.81372 13.1077C3.99657 14.023 2.58694 15.319 1.59819 16.9892C0.602768 18.6594 0.108398 20.6636 0.108398 23.0019C0.108398 25.133 0.549329 26.9702 1.43786 28.5068C2.3264 30.0433 3.60909 31.2191 5.29931 32.0342C6.98285 32.8492 9.01378 33.2567 11.3788 33.2567H53.22C54.6898 33.2567 56.1262 33.0697 57.5291 32.6956C58.9254 32.3214 60.2882 31.7536 61.611 31.0053C62.9939 31.7603 64.4169 32.3214 65.8733 32.6956C67.3297 33.0697 68.6926 33.2567 69.9552 33.2567H94.7473C99.8581 33.23 103.165 30.2103 103.165 23.9639V9.94107H99.1499V23.4227L99.17 23.4428ZM15.2202 29.8162H11.312C9.00043 29.8162 7.22335 29.235 5.9607 28.0658C4.70472 26.8967 4.07674 25.2065 4.07674 22.9818C4.07674 20.5233 4.79825 18.6193 6.25465 17.2564C7.70436 15.9003 9.76202 15.2188 12.4209 15.2188H15.2202V29.8229V29.8162ZM61.6778 26.8299C60.5087 25.928 59.4398 24.9125 58.4778 23.7835C57.5157 22.6545 56.7007 21.4386 56.0393 20.1292C55.3779 18.8197 54.8969 17.4769 54.5963 16.094C55.4648 15.4927 56.3266 15.0051 57.1683 14.6309C58.0101 14.2568 58.8586 13.9695 59.7137 13.7758C60.5688 13.5821 61.4173 13.4818 62.259 13.4818C63.368 13.4818 64.4704 13.6155 65.5526 13.8894C66.6349 14.1633 67.7038 14.5842 68.7527 15.152C68.599 17.6172 67.9644 19.7884 66.8353 21.6657C65.7063 23.543 63.9893 25.2666 61.6711 26.8299H61.6778Z" fill="white"/>
</svg>
