<svg width="141" height="67" viewBox="0 0 141 67" fill="none" xmlns="http://www.w3.org/2000/svg">
<path d="M41.7502 50.776C41.7502 45.5064 38.61 41.9236 32.7781 41.9236C27.5863 41.9236 24.5298 44.9023 24.0871 49.4482H27.6281C27.9511 46.1105 30.0446 44.8186 32.82 44.8186C36.361 44.8186 38.0118 46.5472 38.1733 50.1719L30.3258 50.9375C25.5765 51.3802 23.6445 53.5933 23.6445 56.7754C23.6445 58.8689 24.5298 62.7328 30.4035 62.7328C35.2723 62.7328 37.4077 59.8737 38.1673 56.8172H39.1722L38.61 58.9526V59.9156C38.61 61.4468 39.4952 62.3321 41.0264 62.3321H44.6871V59.2756H41.7502V50.782V50.776ZM30.9657 59.79C28.6689 59.79 27.1795 58.6236 27.1795 56.3268C27.1795 54.3948 28.4655 53.7129 30.9239 53.4677L38.1673 52.702C38.1673 56.7275 35.3082 59.784 30.9657 59.784V59.79Z" fill="#006173"/>
<path d="M60.1072 41.9237C55.7587 41.9237 53.2226 44.4598 52.4211 48.0786H51.4162L52.0203 45.6621V42.3245H48.4375V62.3262H52.0203V53.5515C52.0203 48.1623 54.9153 44.9802 59.1023 44.9802C62.4818 44.9802 64.0908 46.5473 64.0908 50.6924V62.3203H67.6318V50.2079C67.6318 44.5735 64.653 41.9177 60.1072 41.9177V41.9237Z" fill="#006173"/>
<path d="M81.8372 59.8737C77.6921 59.8737 75.6405 56.895 75.5208 52.9892H91.4134V51.7032C91.4134 45.5064 87.5494 41.9236 81.6338 41.9236C75.7182 41.9236 72.0576 45.5842 72.0576 52.062C72.0576 57.9776 75.3593 62.7269 81.879 62.7269C88.0339 62.7269 90.6896 59.0244 91.4971 55.3219H87.9561C87.2743 58.0973 85.2585 59.8678 81.8372 59.8678V59.8737ZM81.6338 44.7408C85.2167 44.7408 87.6691 46.8343 87.9143 50.4531H75.5627C75.8438 46.8343 78.3381 44.7408 81.6398 44.7408H81.6338Z" fill="#006173"/>
<path d="M113.592 50.776C113.592 45.5064 110.452 41.9236 104.62 41.9236C99.4286 41.9236 96.3721 44.9023 95.9295 49.4482H99.4704C99.7934 46.1105 101.887 44.8186 104.662 44.8186C108.203 44.8186 109.854 46.5472 110.016 50.1719L102.168 50.9375C97.4188 51.3802 95.4868 53.5933 95.4868 56.7754C95.4868 58.8689 96.3721 62.7328 102.246 62.7328C107.115 62.7328 109.25 59.8737 110.01 56.8172H111.015L110.452 58.9526V59.9156C110.452 61.4468 111.338 62.3321 112.869 62.3321H116.529V59.2756H113.592V50.782V50.776ZM102.808 59.79C100.511 59.79 99.0218 58.6236 99.0218 56.3268C99.0218 54.3948 100.308 53.7129 102.766 53.4677L110.01 52.702C110.01 56.7275 107.151 59.784 102.808 59.784V59.79Z" fill="#006173"/>
<path d="M132.146 41.9234C127.798 41.9234 125.142 44.4595 124.257 48.0783H123.21L123.856 45.6618V38.2808H120.273V62.3259H123.856V53.8324C123.856 48.4431 126.554 44.9799 130.896 44.9799C134.318 44.9799 135.885 46.5889 135.885 50.6921V62.32H139.426V50.2854C139.426 44.8902 136.692 41.9115 132.141 41.9115L132.146 41.9234Z" fill="#006173"/>
<path d="M15.6295 51.0989C15.6295 56.4882 12.7345 59.6703 8.54753 59.6703C5.16804 59.6703 3.55905 58.1031 3.55905 53.952V42.3242H0.0180664V54.4365C0.0180664 60.071 2.9968 62.7268 7.54266 62.7268C12.0885 62.7268 14.4212 60.1906 15.2287 56.5719H16.2336L15.6295 58.9884V66.6446H19.2123V42.3302H15.6295V51.1049V51.0989Z" fill="#006173"/>
<path d="M105.553 24.8946L104.991 22.514H105.96C106.768 26.1447 109.31 28.6927 113.67 28.6927C113.67 28.6927 113.67 28.6927 113.676 28.6927H131.836C136.441 28.6927 139.426 25.9892 139.426 20.3786V8.22442H135.831V19.8941C135.831 23.9914 134.27 25.6063 130.879 25.6243H112.623C108.484 25.6063 105.553 22.4242 105.553 16.9872V1.33984H102V28.292H105.553V24.9005V24.8946Z" fill="#006173"/>
<path d="M11.634 5.16792C13.1473 5.16792 14.3615 4.06137 14.3615 2.58396C14.3615 1.10656 13.1473 0 11.634 0C10.1207 0 8.94238 1.10656 8.94238 2.58396C8.94238 4.06137 10.0848 5.16792 11.634 5.16792Z" fill="#006173"/>
<path d="M3.99557 5.16792C5.54475 5.16792 6.72907 4.06137 6.72907 2.58396C6.72907 1.10656 5.55073 0 3.99557 0C2.44041 0 1.33984 1.10656 1.33984 2.58396C1.33984 4.06137 2.48228 5.16792 3.99557 5.16792Z" fill="#006173"/>
<path d="M127.535 34.1296C127.535 35.607 128.678 36.7136 130.191 36.7136C131.704 36.7136 132.924 35.607 132.924 34.1296C132.924 32.6522 131.746 31.5457 130.191 31.5457C128.636 31.5457 127.535 32.6522 127.535 34.1296Z" fill="#006173"/>
<path d="M137.83 31.552C136.281 31.552 135.138 32.6585 135.138 34.1359C135.138 35.6134 136.281 36.7199 137.83 36.7199C139.379 36.7199 140.557 35.6134 140.557 34.1359C140.557 32.6585 139.343 31.552 137.83 31.552Z" fill="#006173"/>
<path d="M90.2175 0.400635C88.6683 0.400635 87.5259 1.50719 87.5259 2.98459C87.5259 4.46199 88.6683 5.56856 90.2175 5.56856C91.7667 5.56856 92.945 4.46199 92.945 2.98459C92.945 1.50719 91.7308 0.400635 90.2175 0.400635Z" fill="#006173"/>
<path d="M88.692 20.2891C88.692 24.4043 87.1189 26.0252 83.6856 26.0252H62.4038C61.6502 26.0252 60.8905 25.8697 60.1489 25.7202C59.4072 25.5706 58.6595 25.3613 57.9058 25.0921C59.4131 24.0394 60.7111 22.7893 61.7997 21.3358C62.8883 19.8823 63.7257 18.2853 64.3059 16.5507C64.8861 14.8161 65.1732 13.0157 65.1732 11.1615C63.8812 10.2762 62.3739 9.55845 60.6513 9.02012C58.9286 8.4818 57.218 8.21264 55.5252 8.21264C54.2632 8.21264 52.9951 8.39208 51.7271 8.75694C50.459 9.12181 49.2567 9.63023 48.1143 10.2882C46.9719 10.9461 45.9012 11.7357 44.9023 12.6508C45.1475 14.1043 45.644 15.6475 46.3976 17.2744C47.1513 18.9014 48.0665 20.4326 49.1431 21.8562C49.6814 22.556 50.2197 23.1841 50.7581 23.7343C51.2964 24.2846 51.8228 24.7512 52.3312 25.128C51.7091 25.3972 50.9973 25.6005 50.1898 25.7321C49.3824 25.8637 48.527 26.0133 47.558 26.0133H21.3296H16.8974V7.30347H13.5179V9.80368H10.8921C8.66703 9.80368 6.74102 10.2164 5.1081 11.0359C3.48116 11.8553 2.21909 13.0157 1.33385 14.511C0.44262 16.0064 0 17.8008 0 19.8943C0 21.8024 0.394775 23.4472 1.1903 24.823C1.98582 26.1987 3.13425 27.2514 4.64754 27.9811C6.15485 28.7109 7.97319 29.0757 10.0906 29.0757H47.552C48.868 29.0757 50.154 28.9082 51.4101 28.5733C52.6602 28.2383 53.8804 27.7299 55.0647 27.06C56.3028 27.7359 57.5769 28.2383 58.8808 28.5733C60.1847 28.9082 61.4049 29.0757 62.5354 29.0757H84.7324C89.3081 29.0518 92.2689 26.3482 92.2689 20.7556V8.20068H88.6741V20.2711L88.692 20.2891ZM13.5299 25.9953H10.0308C7.96123 25.9953 6.37018 25.4749 5.23969 24.4282C4.11519 23.3814 3.55295 21.8682 3.55295 19.8764C3.55295 17.6752 4.19893 15.9705 5.50288 14.7503C6.80084 13.5361 8.6431 12.926 11.0237 12.926H13.5299V26.0013V25.9953ZM55.1245 23.3216C54.0777 22.5141 53.1207 21.605 52.2594 20.5941C51.3981 19.5833 50.6684 18.4946 50.0762 17.3223C49.484 16.1499 49.0534 14.9477 48.7842 13.7095C49.5618 13.1712 50.3334 12.7346 51.0871 12.3996C51.8407 12.0647 52.6003 11.8075 53.366 11.634C54.1316 11.4605 54.8912 11.3708 55.6449 11.3708C56.6378 11.3708 57.6247 11.4904 58.5937 11.7357C59.5627 11.9809 60.5197 12.3577 61.4588 12.8662C61.3212 15.0733 60.753 17.0172 59.7421 18.698C58.7313 20.3788 57.194 21.922 55.1185 23.3216H55.1245Z" fill="#006173"/>
</svg>
