<svg width="144" height="92" viewBox="0 0 144 92" fill="none" xmlns="http://www.w3.org/2000/svg">
<path d="M49.5438 11.0752C49.0303 5.62415 46.8525 1.88031 43.4039 0.528248C38.4021 -1.43567 32.0012 2.17126 26.8026 9.7702L26.7726 9.74025L26.7341 9.80015C22.5196 6.30874 17.9928 5.14495 14.3816 6.72378C12.1395 7.7036 10.4195 9.62045 9.36266 12.2818C6.29485 12.4144 3.80894 13.4798 2.14026 15.4181C0.557145 17.2536 -0.174508 19.7352 0.0351471 22.6062C0.437343 28.1386 4.34377 34.7149 10.2141 39.7766C14.3174 43.3279 19.3876 46.2502 24.813 47.0846C31.9926 48.1927 37.2169 43.683 41.1832 38.2277C41.3929 37.9367 41.6025 37.6415 41.8079 37.3463C43.6734 34.6721 45.3378 31.5701 46.6471 28.2284C48.9875 22.2725 50.0144 16.1754 49.5395 11.0795M34.7695 37.8683C34.3929 39.6996 33.6912 41.6293 32.0953 42.7417C30.3068 43.9911 27.6027 44.3976 25.6773 43.2209C24.4835 42.4893 23.6791 41.2142 23.1529 39.952C19.7171 31.6471 23.1871 21.7976 27.3374 14.3955C27.2861 14.4853 29.0403 16.5134 29.2457 16.8086C32.7799 21.8746 35.1075 28.0059 35.1075 34.2271C35.1075 35.4466 35.0134 36.6788 34.7652 37.8726M15.5411 9.37228C18.2067 8.21276 21.7666 9.29954 25.2066 12.2818C24.4579 13.5654 23.769 14.9175 23.1357 16.3251C23.0972 16.4107 23.0502 16.4963 23.0117 16.5861C22.5068 16.2652 21.9976 15.97 21.4884 15.6833C18.7116 14.1173 15.6309 12.8936 12.4604 12.4444C13.0937 11.225 14.0649 10.0226 15.5411 9.37656M12.0839 37.6244C8.46842 34.5865 5.38777 30.7828 3.68914 26.4485C2.00762 22.157 2.61519 16.3808 7.92075 15.2384C12.7 14.2115 17.689 16.6289 21.6168 19.1362C21.7067 19.1919 21.7965 19.256 21.8864 19.3117C21.8521 19.3972 21.8222 19.4785 21.7965 19.5598C19.1951 26.7095 16.9787 36.6232 21.7837 43.375C21.4671 42.93 19.7085 42.5363 19.1694 42.2753C18.211 41.809 17.2739 41.287 16.3711 40.7264C14.8993 39.8108 13.4574 38.7711 12.0925 37.6201M43.9601 27.1673C42.5738 30.6887 40.6997 35.2925 37.7645 37.8255C38.2181 37.4361 37.863 35.4594 37.8544 34.8946C37.833 33.5639 37.7817 32.2333 37.6619 30.9026C37.3067 26.9919 36.1173 23.2652 34.3673 19.7609C33.0323 17.0867 31.3679 14.5409 29.3655 12.316C29.2115 12.1491 29.0617 11.9823 28.9034 11.8154C33.2548 5.28614 38.693 1.77335 42.3513 3.21098C44.6917 4.1309 46.2706 7.09602 46.6685 11.3362C46.7327 12.0721 46.7712 12.8337 46.7712 13.6082C46.7712 17.7713 45.7999 22.495 43.9644 27.163" fill="white"/>
<path d="M11.8917 46.1261V46.5197H11.2328V48.3681H10.7793V46.5197H10.1289V46.1261H11.8917ZM12.7218 46.1261L13.4064 47.5509L14.091 46.1261H14.613V48.3681H14.2022V46.7807L13.5561 48.1371H13.2566L12.6148 46.7807V48.3681H12.1998V46.1261H12.7218Z" fill="white"/>
<path d="M73.3197 80.2829C73.3197 76.5134 71.0734 73.9504 66.9017 73.9504C63.1878 73.9504 61.0014 76.0812 60.6848 79.333H63.2178C63.4488 76.9455 64.9464 76.0213 66.9317 76.0213C69.4646 76.0213 70.6456 77.2579 70.7611 79.8507L65.1475 80.3984C61.7502 80.715 60.3682 82.2981 60.3682 84.5744C60.3682 86.0719 61.0014 88.836 65.2031 88.836C68.6859 88.836 70.2134 86.7908 70.7568 84.6044H71.4756L71.0734 86.1318V86.8207C71.0734 87.916 71.7067 88.5493 72.802 88.5493H75.4206V86.3629H73.3197V80.2872V80.2829ZM65.6053 86.7309C63.9623 86.7309 62.8969 85.8965 62.8969 84.2535C62.8969 82.8715 63.8168 82.3837 65.5753 82.2083L70.7568 81.6606C70.7568 84.5402 68.7116 86.7266 65.6053 86.7266V86.7309Z" fill="white"/>
<path d="M86.4522 73.9504C83.3416 73.9504 81.5274 75.7646 80.9541 78.3532H80.2353L80.6674 76.6246V74.2371H78.1045V88.545H80.6674V82.2682C80.6674 78.4131 82.7383 76.1368 85.7334 76.1368C88.1508 76.1368 89.3018 77.2579 89.3018 80.223V88.5408H91.8348V79.8764C91.8348 75.8459 89.704 73.9462 86.4522 73.9462V73.9504Z" fill="white"/>
<path d="M101.997 86.7908C99.0315 86.7908 97.5639 84.66 97.4783 81.866H108.847V80.9461C108.847 76.5134 106.083 73.9504 101.851 73.9504C97.6195 73.9504 95.001 76.569 95.001 81.2028C95.001 85.4344 97.3628 88.8317 102.027 88.8317C106.429 88.8317 108.329 86.1832 108.907 83.5347H106.374C105.886 85.52 104.444 86.7865 101.997 86.7865V86.7908ZM101.851 75.9657C104.414 75.9657 106.168 77.4632 106.344 80.0518H97.5083C97.7094 77.4632 99.4936 75.9657 101.855 75.9657H101.851Z" fill="white"/>
<path d="M124.711 80.2829C124.711 76.5134 122.465 73.9504 118.293 73.9504C114.579 73.9504 112.393 76.0812 112.076 79.333H114.609C114.84 76.9455 116.338 76.0213 118.323 76.0213C120.856 76.0213 122.037 77.2579 122.153 79.8507L116.539 80.3984C113.142 80.715 111.76 82.2981 111.76 84.5744C111.76 86.0719 112.393 88.836 116.595 88.836C120.078 88.836 121.605 86.7908 122.148 84.6044H122.867L122.465 86.1318V86.8207C122.465 87.916 123.098 88.5493 124.194 88.5493H126.812V86.3629H124.711V80.2872V80.2829ZM116.997 86.7309C115.354 86.7309 114.288 85.8965 114.288 84.2535C114.288 82.8715 115.208 82.3837 116.967 82.2083L122.148 81.6606C122.148 84.5402 120.103 86.7266 116.997 86.7266V86.7309Z" fill="white"/>
<path d="M137.984 73.9504C134.874 73.9504 132.974 75.7646 132.341 78.3532H131.592L132.054 76.6246V71.3447H129.491V88.545H132.054V82.4693C132.054 78.6142 133.984 76.1368 137.09 76.1368C139.538 76.1368 140.659 77.2878 140.659 80.223V88.5407H143.192V79.932C143.192 76.0727 141.236 73.9419 137.98 73.9419L137.984 73.9504Z" fill="white"/>
<path d="M54.6351 80.5139C54.6351 84.369 52.5642 86.6452 49.5692 86.6452C47.1517 86.6452 46.0008 85.5242 46.0008 82.5548V74.2371H43.4678V82.9014C43.4678 86.9319 45.5986 88.8316 48.8504 88.8316C52.1022 88.8316 53.7708 87.0175 54.3485 84.4289H55.0673L54.6351 86.1575V91.6342H57.1981V74.2413H54.6351V80.5182V80.5139Z" fill="white"/>
<path d="M118.96 61.769L118.558 60.0661H119.251C119.829 62.6632 121.647 64.486 124.767 64.486C124.767 64.486 124.767 64.486 124.771 64.486H137.761C141.056 64.486 143.191 62.552 143.191 58.5386V49.8443H140.619V58.192C140.619 61.1229 139.502 62.2782 137.076 62.291H124.018C121.057 62.2782 118.96 60.0019 118.96 56.1126V44.9196H116.419V64.1993H118.96V61.7733V61.769Z" fill="white"/>
<path d="M51.777 47.6578C52.8595 47.6578 53.728 46.8663 53.728 45.8095C53.728 44.7526 52.8595 43.9611 51.777 43.9611C50.6945 43.9611 49.8516 44.7526 49.8516 45.8095C49.8516 46.8663 50.6688 47.6578 51.777 47.6578Z" fill="white"/>
<path d="M46.3128 47.6578C47.421 47.6578 48.2682 46.8663 48.2682 45.8095C48.2682 44.7526 47.4253 43.9611 46.3128 43.9611C45.2004 43.9611 44.4131 44.7526 44.4131 45.8095C44.4131 46.8663 45.2303 47.6578 46.3128 47.6578Z" fill="white"/>
<path d="M134.685 68.3752C134.685 69.4321 135.502 70.2236 136.584 70.2236C137.667 70.2236 138.54 69.4321 138.54 68.3752C138.54 67.3184 137.697 66.5269 136.584 66.5269C135.472 66.5269 134.685 67.3184 134.685 68.3752Z" fill="white"/>
<path d="M142.049 66.5311C140.941 66.5311 140.124 67.3227 140.124 68.3795C140.124 69.4363 140.941 70.2279 142.049 70.2279C143.158 70.2279 144.001 69.4363 144.001 68.3795C144.001 67.3227 143.132 66.5311 142.049 66.5311Z" fill="white"/>
<path d="M107.991 44.2479C106.883 44.2479 106.065 45.0395 106.065 46.0963C106.065 47.1531 106.883 47.9447 107.991 47.9447C109.099 47.9447 109.942 47.1531 109.942 46.0963C109.942 45.0395 109.073 44.2479 107.991 44.2479Z" fill="white"/>
<path d="M106.899 58.4744C106.899 61.4182 105.774 62.5777 103.318 62.5777H88.0945C87.5554 62.5777 87.012 62.4664 86.4815 62.3595C85.9509 62.2525 85.4161 62.1028 84.877 61.9102C85.9552 61.1572 86.8837 60.2629 87.6624 59.2232C88.4411 58.1835 89.0401 57.0411 89.4552 55.8003C89.8702 54.5594 90.0756 53.2716 90.0756 51.9452C89.1514 51.3119 88.0732 50.7985 86.8409 50.4134C85.6086 50.0283 84.3849 49.8358 83.1741 49.8358C82.2713 49.8358 81.3642 49.9641 80.4571 50.2251C79.55 50.4861 78.69 50.8498 77.8728 51.3205C77.0556 51.7911 76.2897 52.3559 75.5751 53.0106C75.7506 54.0503 76.1057 55.1542 76.6448 56.318C77.1839 57.4818 77.8386 58.5771 78.6087 59.5955C78.9938 60.0961 79.3789 60.5453 79.764 60.939C80.149 61.3326 80.5256 61.6663 80.8892 61.9359C80.4443 62.1284 79.9351 62.2739 79.3575 62.368C78.7799 62.4622 78.168 62.5691 77.4749 62.5691H58.7129H55.5423V49.1854H53.1249V50.9739H51.2466C49.6549 50.9739 48.2771 51.2691 47.1091 51.8553C45.9453 52.4415 45.0425 53.2716 44.4092 54.3412C43.7717 55.4109 43.4551 56.6945 43.4551 58.192C43.4551 59.5569 43.7375 60.7336 44.3065 61.7177C44.8756 62.7018 45.6971 63.4548 46.7796 63.9768C47.8578 64.4988 49.1586 64.7598 50.6732 64.7598H77.4706C78.4119 64.7598 79.3318 64.64 80.2303 64.4004C81.1246 64.1608 81.9974 63.7971 82.8446 63.3179C83.7303 63.8014 84.6417 64.1608 85.5744 64.4004C86.5072 64.64 87.38 64.7598 88.1887 64.7598H104.067C107.34 64.7427 109.458 62.8087 109.458 58.8082V49.8272H106.887V58.4616L106.899 58.4744ZM53.1335 62.5563H50.6304C49.15 62.5563 48.0119 62.1841 47.2032 61.4353C46.3988 60.6865 45.9966 59.604 45.9966 58.1792C45.9966 56.6047 46.4587 55.3852 47.3915 54.5124C48.3199 53.6438 49.6378 53.2074 51.3407 53.2074H53.1335V62.5606V62.5563ZM82.8874 60.6437C82.1386 60.0661 81.454 59.4157 80.8379 58.6927C80.2218 57.9696 79.6998 57.1908 79.2762 56.3522C78.8526 55.5136 78.5445 54.6536 78.352 53.7679C78.9082 53.3828 79.4602 53.0705 79.9993 52.8309C80.5384 52.5913 81.0818 52.4073 81.6295 52.2832C82.1771 52.1591 82.7205 52.0949 83.2596 52.0949C83.9699 52.0949 84.6759 52.1805 85.369 52.3559C86.0622 52.5314 86.7468 52.8009 87.4185 53.1646C87.3201 54.7434 86.9136 56.134 86.1905 57.3363C85.4674 58.5386 84.3678 59.6425 82.8831 60.6437H82.8874Z" fill="white"/>
</svg>
