<svg width="224" height="219" viewBox="0 0 224 219" fill="none" xmlns="http://www.w3.org/2000/svg">
    <path d="M223.508 50.3963C221.192 25.8101 211.369 8.92402 195.815 2.82571C173.255 -6.03227 144.384 10.2363 120.937 44.5103L120.802 44.3752L120.628 44.6454C101.619 28.8979 81.2014 23.6487 64.9135 30.7698C54.8012 35.1892 47.0432 43.8349 42.2764 55.8385C28.4395 56.4368 17.2271 61.2421 9.70071 69.9843C2.56029 78.2633 -0.739733 89.4564 0.20589 102.406C2.01994 127.358 19.6394 157.02 46.1168 179.85C64.624 195.868 87.4927 209.049 111.963 212.812C144.346 217.81 167.909 197.47 185.799 172.864C186.745 171.552 187.69 170.22 188.616 168.889C197.031 156.827 204.538 142.836 210.443 127.764C220.999 100.9 225.631 73.4001 223.489 50.4156M156.871 171.243C155.172 179.503 152.007 188.206 144.809 193.224C136.742 198.859 124.546 200.693 115.861 195.385C110.477 192.085 106.849 186.334 104.475 180.641C88.9787 143.183 104.63 98.7582 123.349 65.3719C123.118 65.7772 131.03 74.9247 131.956 76.2562C147.897 99.1056 158.395 126.76 158.395 154.82C158.395 160.32 157.971 165.878 156.851 171.262M70.1434 42.7156C82.1663 37.4857 98.2226 42.3875 113.739 55.8385C110.361 61.628 107.254 67.7263 104.398 74.0755C104.224 74.4615 104.012 74.8475 103.838 75.2527C101.561 73.8053 99.2647 72.4737 96.9682 71.1808C84.4435 64.1175 70.5487 58.5982 56.2485 56.5719C59.1047 51.0718 63.4854 45.6489 70.1434 42.7349M54.5502 170.143C38.2431 156.441 24.3482 139.285 16.6867 119.736C9.10245 100.379 11.8428 74.3264 35.7729 69.1737C57.3292 64.5421 79.8312 75.4457 97.5471 86.7546C97.9524 87.0055 98.3577 87.2949 98.763 87.5458C98.6086 87.9318 98.4735 88.2985 98.3577 88.6651C86.6243 120.913 76.6277 165.627 98.2998 196.08C96.8717 194.073 88.9401 192.298 86.5085 191.121C82.1856 189.017 77.9593 186.663 73.8873 184.134C67.2486 180.005 60.7451 175.315 54.5889 170.124M198.324 122.978C192.071 138.86 183.618 159.625 170.379 171.05C172.425 169.294 170.823 160.378 170.785 157.831C170.688 151.829 170.457 145.827 169.916 139.825C168.314 122.187 162.95 105.378 155.056 89.5722C149.035 77.5106 141.528 66.0281 132.497 55.9929C131.802 55.2403 131.126 54.4876 130.412 53.735C150.039 24.2856 174.567 8.44156 191.067 14.9258C201.624 19.075 208.745 32.4488 210.539 51.5735C210.829 54.8929 211.003 58.328 211.003 61.821C211.003 80.5984 206.622 101.904 198.343 122.958" fill="#68C35C"/>
    <path d="M53.6814 208.489V210.264H50.7095V218.601H48.6638V210.264H45.7305V208.489H53.6814ZM57.4253 208.489L60.5131 214.915L63.6008 208.489H65.9552V218.601H64.1026V211.442L61.1885 217.559H59.8376L56.9429 211.442V218.601H55.0709V208.489H57.4253Z" fill="#68C35C"/>
    </svg>
    