<svg width="143" height="136" viewBox="0 0 143 136" fill="none" xmlns="http://www.w3.org/2000/svg">
<g filter="url(#filter0_d_117_5936)">
<path d="M137.926 32.9385C136.536 18.1985 130.646 8.07851 121.326 4.42851C107.806 -0.881492 90.5059 8.86851 76.4459 29.4085L76.3659 29.3285L76.2659 29.4885C64.8759 20.0485 52.6359 16.9085 42.8759 21.1685C36.8159 23.8185 32.1659 28.9985 29.3059 36.1885C21.0159 36.5485 14.2959 39.4285 9.78591 44.6685C5.50591 49.6385 3.52591 56.3485 4.09591 64.1085C5.18591 79.0685 15.7459 96.8385 31.6159 110.529C42.7059 120.129 56.4159 128.029 71.0759 130.289C90.4859 133.289 104.606 121.089 115.326 106.349C115.896 105.559 116.456 104.769 117.016 103.969C122.056 96.7385 126.556 88.3585 130.096 79.3185C136.426 63.2185 139.196 46.7385 137.916 32.9585" fill="white"/>
<path d="M120.78 44.266C119.746 33.307 115.36 25.7803 108.415 23.062C98.3411 19.1137 85.4498 26.3652 74.9799 41.6424L74.9196 41.5822L74.842 41.7026C66.3541 34.6834 57.2371 32.3436 49.9642 35.5178C45.4488 37.4876 41.9847 41.3413 39.8562 46.6918C33.6777 46.9585 28.6711 49.1004 25.3104 52.9971C22.1221 56.6874 20.6485 61.6766 21.0708 67.4485C21.8808 78.571 29.7483 91.7923 41.5711 101.968C49.8349 109.108 60.0463 114.983 70.9729 116.661C85.4325 118.889 95.9541 109.822 103.942 98.8546C104.364 98.2696 104.787 97.6761 105.2 97.0825C108.957 91.7063 112.31 85.4698 114.946 78.7516C119.66 66.7776 121.728 54.5197 120.772 44.2746M91.0251 98.132C90.2668 101.814 88.8536 105.693 85.6394 107.93C82.0374 110.441 76.5913 111.259 72.7136 108.893C70.3094 107.422 68.6894 104.859 67.6294 102.321C60.7098 85.6246 67.6984 65.8227 76.057 50.9412C75.9536 51.1219 79.4867 55.1992 79.9003 55.7928C87.0181 65.9776 91.7058 78.3043 91.7058 90.8117C91.7058 93.2632 91.5163 95.7406 91.0165 98.1406M52.2995 40.8424C57.668 38.5113 64.8375 40.6962 71.7657 46.6918C70.2577 49.2724 68.8703 51.9907 67.595 54.8207C67.5174 54.9928 67.4226 55.1648 67.3451 55.3455C66.3282 54.7003 65.3028 54.1068 64.2774 53.5304C58.6848 50.3821 52.4804 47.9219 46.0951 47.0187C47.3704 44.5671 49.3265 42.1499 52.2995 40.851M45.3368 97.6417C38.0553 91.5342 31.8509 83.887 28.4299 75.1731C25.0433 66.5453 26.2669 54.9326 36.9523 52.6358C46.5777 50.5713 56.6253 55.4315 64.5359 60.4723C64.7168 60.5841 64.8978 60.7131 65.0788 60.825C65.0098 60.997 64.9495 61.1604 64.8978 61.3239C59.6585 75.6979 55.1948 95.6288 64.8719 109.203C64.2343 108.308 60.6926 107.517 59.6068 106.992C57.6766 106.054 55.7894 105.005 53.9712 103.878C51.0069 102.037 48.1029 99.947 45.354 97.6331M109.535 76.6183C106.743 83.6978 102.969 92.9536 97.0571 98.046C97.9705 97.2632 97.2553 93.289 97.2381 92.1536C97.195 89.4783 97.0916 86.8031 96.8503 84.1279C96.1351 76.2656 93.7395 68.7732 90.2151 61.7282C87.5265 56.3519 84.1744 51.2337 80.1416 46.7606C79.8314 46.4251 79.5298 46.0897 79.2109 45.7542C87.9746 32.6275 98.9271 25.5652 106.295 28.4555C111.008 30.3049 114.188 36.2661 114.989 44.7908C115.119 46.2703 115.196 47.8015 115.196 49.3584C115.196 57.7282 113.24 67.2249 109.543 76.6097" fill="#199491"/>
</g>
<defs>
<filter id="filter0_d_117_5936" x="0" y="0" width="142.221" height="135.746" filterUnits="userSpaceOnUse" color-interpolation-filters="sRGB">
<feFlood flood-opacity="0" result="BackgroundImageFix"/>
<feColorMatrix in="SourceAlpha" type="matrix" values="0 0 0 0 0 0 0 0 0 0 0 0 0 0 0 0 0 0 127 0" result="hardAlpha"/>
<feOffset dy="1"/>
<feGaussianBlur stdDeviation="2"/>
<feComposite in2="hardAlpha" operator="out"/>
<feColorMatrix type="matrix" values="0 0 0 0 0 0 0 0 0 0 0 0 0 0 0 0 0 0 0.25 0"/>
<feBlend mode="normal" in2="BackgroundImageFix" result="effect1_dropShadow_117_5936"/>
<feBlend mode="normal" in="SourceGraphic" in2="effect1_dropShadow_117_5936" result="shape"/>
</filter>
</defs>
</svg>
