<svg width="67" height="64" viewBox="0 0 67 64" fill="none" xmlns="http://www.w3.org/2000/svg">
<g filter="url(#filter0_d_85_13012)">
<path d="M62.1008 15.9373C61.383 9.57992 58.7577 5.25443 54.702 3.75158C48.8184 1.56494 41.4215 5.91503 35.5103 14.9012L35.4751 14.8672L35.4332 14.9372C30.437 10.9492 25.1238 9.68994 20.9408 11.6081C18.3437 12.8012 16.3759 15.0762 15.1974 18.2054C11.6186 18.4269 8.7381 19.7247 6.83124 22.0245C5.0216 24.2058 4.21951 27.1206 4.52751 30.4688C5.11743 36.9236 9.82123 44.5171 16.7867 50.3056C21.6545 54.3651 27.6408 57.6692 33.9926 58.5291C42.4026 59.6708 48.4061 54.2875 52.9204 47.8338C53.1604 47.488 53.396 47.1422 53.6316 46.7921C55.7516 43.6283 57.6292 39.9719 59.0868 36.038C61.6936 29.0317 62.7593 21.8895 62.0966 15.946" fill="white"/>
</g>
<defs>
<filter id="filter0_d_85_13012" x="0.463379" y="0.193726" width="65.8252" height="63.489" filterUnits="userSpaceOnUse" color-interpolation-filters="sRGB">
<feFlood flood-opacity="0" result="BackgroundImageFix"/>
<feColorMatrix in="SourceAlpha" type="matrix" values="0 0 0 0 0 0 0 0 0 0 0 0 0 0 0 0 0 0 127 0" result="hardAlpha"/>
<feOffset dy="1"/>
<feGaussianBlur stdDeviation="2"/>
<feComposite in2="hardAlpha" operator="out"/>
<feColorMatrix type="matrix" values="0 0 0 0 0 0 0 0 0 0 0 0 0 0 0 0 0 0 0.25 0"/>
<feBlend mode="normal" in2="BackgroundImageFix" result="effect1_dropShadow_85_13012"/>
<feBlend mode="normal" in="SourceGraphic" in2="effect1_dropShadow_85_13012" result="shape"/>
</filter>
</defs>
</svg>
