<svg width="92" height="110" viewBox="0 0 92 110" fill="none" xmlns="http://www.w3.org/2000/svg">
<g filter="url(#filter0_d_218_9187)">
<path d="M41.539 98.0399C40.159 98.0399 38.779 97.8399 37.459 97.4499L12.149 89.9399C10.489 89.4499 9.12902 88.3399 8.29902 86.8199C7.47902 85.2999 7.28902 83.5499 7.77902 81.8999C8.58902 79.1699 11.139 77.2699 13.979 77.2699C14.599 77.2699 15.219 77.3599 15.819 77.5399L41.129 85.0499C41.259 85.0899 41.399 85.1099 41.529 85.1099C41.779 85.1099 42.029 85.0399 42.259 84.9099L64.799 71.9099L55.639 74.7199C54.889 76.7299 53.209 78.3299 51.059 78.9199L40.999 81.6999C39.769 82.0399 38.499 82.2099 37.219 82.2099C35.089 82.2099 32.959 81.7199 31.049 80.7999L22.409 76.6199C19.199 75.0699 17.849 71.1899 19.399 67.9799C19.689 67.3899 20.059 66.8499 20.499 66.3799H13.969C10.399 66.3799 7.49902 63.4799 7.49902 59.9099C7.49902 56.3399 10.399 53.4399 13.969 53.4399H23.449C25.579 53.4399 27.709 53.9299 29.619 54.8499L37.699 58.7599C37.859 58.8399 38.049 58.8799 38.239 58.8799H42.369C45.799 58.8799 49.109 60.1699 51.619 62.4099L65.869 58.0299C67.239 57.6099 68.659 57.3899 70.089 57.3899C74.669 57.3899 79.029 59.6399 81.749 63.4099C83.519 65.8699 84.169 68.9799 83.539 71.9699C82.909 74.9099 81.069 77.4599 78.479 78.9499L48.729 96.1199C46.539 97.3799 44.049 98.0499 41.529 98.0499L41.539 98.0399Z" fill="#199491"/>
<path d="M23.459 56.9299C25.069 56.9299 26.659 57.2899 28.109 57.9899L36.189 61.8999C36.829 62.2099 37.529 62.3699 38.249 62.3699H42.379C45.689 62.3699 48.689 63.9299 50.569 66.3899L66.909 61.3699C67.959 61.0399 69.039 60.8799 70.089 60.8799C73.519 60.8799 76.819 62.5399 78.919 65.4499C81.379 68.8599 80.429 73.7699 76.739 75.8999L46.989 93.0599C45.309 94.0299 43.439 94.5199 41.539 94.5199C40.509 94.5199 39.469 94.3699 38.449 94.0699L13.139 86.5599C11.569 86.0899 10.669 84.4399 11.139 82.8699C11.519 81.5799 12.699 80.7399 13.979 80.7399C14.259 80.7399 14.539 80.7799 14.829 80.8599L40.139 88.3699C40.599 88.5099 41.069 88.5699 41.539 88.5699C42.399 88.5699 43.249 88.3399 44.019 87.8999L73.769 70.7399C74.329 70.4199 74.569 69.5399 74.109 68.9099C73.119 67.5399 71.619 66.8099 70.099 66.8099C69.619 66.8099 69.149 66.8799 68.679 67.0299H68.669L52.579 71.9799C52.579 72.0899 52.579 72.2099 52.579 72.3299C52.579 73.8799 51.529 75.1399 50.139 75.5299L40.079 78.3099C39.149 78.5699 38.189 78.6999 37.229 78.6999C35.629 78.6999 34.039 78.3399 32.579 77.6399L23.939 73.4599C22.459 72.7499 21.849 70.9699 22.559 69.4899C23.069 68.4299 24.129 67.8099 25.229 67.8099C25.659 67.8099 26.099 67.9099 26.519 68.1099L35.159 72.2899C35.799 72.5999 36.509 72.7599 37.219 72.7599C37.649 72.7599 38.069 72.6999 38.489 72.5899L46.149 70.4699C45.449 69.2099 44.069 68.3099 42.379 68.3099H38.249C36.639 68.3099 35.049 67.9499 33.599 67.2499L25.519 63.3399C24.879 63.0299 24.179 62.8699 23.459 62.8699H13.979C12.339 62.8699 11.009 61.5399 11.009 59.8999C11.009 58.2599 12.339 56.9299 13.979 56.9299H23.459ZM23.459 49.9299H13.979C8.48901 49.9299 4.00901 54.4099 4.00901 59.8999C4.00901 65.3899 8.47901 69.8699 13.979 69.8699H15.299C15.169 71.2199 15.329 72.5999 15.769 73.9199C15.179 73.8099 14.579 73.7599 13.979 73.7599C9.59901 73.7599 5.66901 76.6899 4.41901 80.8899C3.65901 83.4399 3.93901 86.1399 5.20901 88.4799C6.47901 90.8199 8.57901 92.5299 11.139 93.2799L36.449 100.79C38.099 101.28 39.809 101.53 41.529 101.53C44.659 101.53 47.749 100.7 50.479 99.1299L80.229 81.9699C83.669 79.9799 86.119 76.5999 86.959 72.6999C87.809 68.7499 86.939 64.6199 84.589 61.3599C81.209 56.6799 75.789 53.8899 70.089 53.8899C68.309 53.8899 66.539 54.1599 64.829 54.6899L52.349 58.5299C49.459 56.5099 45.979 55.3799 42.379 55.3799H38.769L31.159 51.6999C28.779 50.5499 26.119 49.9399 23.459 49.9399V49.9299Z" fill="white"/>
<path fill-rule="evenodd" clip-rule="evenodd" d="M49.6788 56.02C44.5988 56.02 41.4788 53.69 38.1788 51.22L37.8288 50.96C28.5588 44.03 22.8088 35.39 21.6488 26.65C20.5288 18.21 23.7388 10.56 30.0188 6.66C33.3988 4.57 36.9288 3.5 40.4988 3.5C43.7088 3.5 46.8988 4.39 49.6688 6.05C52.4388 4.4 55.6288 3.5 58.8388 3.5C62.4088 3.5 65.9388 4.56 69.3188 6.66C75.5988 10.55 78.8088 18.21 77.6888 26.65C76.5288 35.4 70.7788 44.03 61.5088 50.96L61.1688 51.22C57.8688 53.69 54.7488 56.03 49.6688 56.03L49.6788 56.02ZM40.5288 16.44C39.3788 16.44 38.1388 16.85 36.8388 17.66C35.3088 18.61 33.9888 21.23 34.4788 24.95C34.8788 28 36.8688 34.09 45.5788 40.61C48.9088 43.1 49.1288 43.1 49.6788 43.1C50.2288 43.1 50.4488 43.1 53.7788 40.61C62.4888 34.09 64.4788 28 64.8788 24.95C65.3688 21.23 64.0488 18.61 62.5188 17.66C61.2188 16.85 59.9788 16.45 58.8288 16.45C57.4888 16.45 56.4688 17.01 55.8488 17.48L53.6488 14.76L55.7688 17.55C55.1588 18.01 54.5888 18.44 54.0588 18.8C53.5888 19.11 53.1488 19.36 52.7188 19.56C51.7388 20.01 50.7188 20.23 49.6988 20.23C48.6788 20.23 47.6588 20 46.6788 19.56C46.2388 19.36 45.7988 19.11 45.3288 18.8C44.7988 18.45 44.2288 18.01 43.6188 17.55L45.6488 14.69L43.5288 17.48C42.9088 17.01 41.8888 16.45 40.5488 16.45L40.5288 16.44Z" fill="#199491"/>
<path d="M58.8489 7C61.5089 7 64.4389 7.75 67.4889 9.63C72.5089 12.74 75.1689 19.11 74.2289 26.18C73.2789 33.31 68.7389 41.19 59.4289 48.15L59.0789 48.41C56.0289 50.7 53.5989 52.52 49.6789 52.52C45.7589 52.52 43.3289 50.7 40.2789 48.41L39.9289 48.15C30.6089 41.19 26.0689 33.31 25.1289 26.18C24.1889 19.11 26.8489 12.74 31.8689 9.63C34.9089 7.74 37.8489 7 40.5089 7C43.9989 7 47.0189 8.28 49.2189 9.95L49.6789 10.3L50.1389 9.95C52.3489 8.28 55.3689 7 58.8489 7ZM49.6789 16.72C48.9789 16.72 48.4289 16.5 48.1189 16.36C47.7889 16.21 47.4889 16.02 47.2489 15.87C46.8089 15.58 46.2689 15.17 45.7089 14.74L45.6389 14.69C44.3889 13.74 42.6489 12.95 40.5389 12.95C38.8989 12.95 37.0389 13.43 34.9989 14.69C32.3589 16.33 30.3189 20.16 31.0189 25.41C31.7089 30.6 35.1389 37.16 43.4889 43.41C46.9989 46.04 47.9089 46.59 49.6789 46.59C51.4489 46.59 52.3589 46.03 55.8689 43.41C64.2289 37.16 67.6589 30.6 68.3389 25.41C69.0389 20.16 66.9989 16.32 64.3589 14.69C62.3289 13.43 60.4589 12.95 58.8189 12.95C56.7089 12.95 54.9689 13.74 53.7189 14.69L53.6489 14.74C53.0789 15.17 52.5489 15.58 52.1089 15.87C51.8789 16.03 51.5789 16.21 51.2389 16.36C50.9289 16.5 50.3689 16.72 49.6789 16.72ZM58.8489 0C55.6889 0 52.5389 0.73 49.6789 2.09C46.8189 0.73 43.6689 0 40.5089 0C36.2789 0 32.1289 1.24 28.1889 3.68C20.7189 8.31 16.8889 17.28 18.1989 27.1C19.4889 36.79 25.7189 46.26 35.7489 53.76L36.0889 54.02C39.5289 56.6 43.4389 59.52 49.6789 59.52C55.9189 59.52 59.8289 56.6 63.2789 54.02L63.6289 53.76C73.6589 46.26 79.8889 36.79 81.1789 27.1C82.4789 17.28 78.6489 8.3 71.1889 3.68C67.2489 1.24 63.0989 0 58.8689 0L58.8489 0ZM49.6789 23.72C51.2089 23.72 52.7089 23.39 54.1489 22.73C54.7489 22.46 55.3489 22.12 55.9689 21.71C56.5989 21.29 57.2489 20.8 57.8789 20.32L57.9489 20.27C58.2289 20.06 58.5189 19.95 58.8189 19.95C59.2889 19.95 59.9489 20.2 60.6689 20.64C60.8989 20.81 61.7289 21.98 61.3989 24.49C61.1289 26.51 59.6489 31.84 51.6689 37.8C51.2089 38.14 50.3489 38.79 49.6689 39.26C48.9889 38.79 48.1289 38.14 47.6689 37.8C39.6989 31.84 38.2089 26.5 37.9389 24.49C37.6089 21.98 38.4389 20.81 38.6789 20.63C39.3889 20.19 40.0389 19.95 40.5189 19.95C40.8189 19.95 41.1089 20.06 41.3889 20.27L41.4589 20.32C42.0989 20.8 42.7489 21.3 43.3789 21.71C44.0089 22.12 44.5989 22.46 45.1989 22.73C46.6389 23.39 48.1389 23.72 49.6689 23.72H49.6789Z" fill="white"/>
</g>
<defs>
<filter id="filter0_d_218_9187" x="0" y="0" width="91.2778" height="109.53" filterUnits="userSpaceOnUse" color-interpolation-filters="sRGB">
<feFlood flood-opacity="0" result="BackgroundImageFix"/>
<feColorMatrix in="SourceAlpha" type="matrix" values="0 0 0 0 0 0 0 0 0 0 0 0 0 0 0 0 0 0 127 0" result="hardAlpha"/>
<feOffset dy="4"/>
<feGaussianBlur stdDeviation="2"/>
<feComposite in2="hardAlpha" operator="out"/>
<feColorMatrix type="matrix" values="0 0 0 0 0 0 0 0 0 0 0 0 0 0 0 0 0 0 0.25 0"/>
<feBlend mode="normal" in2="BackgroundImageFix" result="effect1_dropShadow_218_9187"/>
<feBlend mode="normal" in="SourceGraphic" in2="effect1_dropShadow_218_9187" result="shape"/>
</filter>
</defs>
</svg>
