<svg width="107" height="103" viewBox="0 0 107 103" fill="none" xmlns="http://www.w3.org/2000/svg">
<g filter="url(#filter0_d_218_9194)">
<path fill-rule="evenodd" clip-rule="evenodd" d="M61.4936 90.81C56.8036 90.81 52.7635 89.2 47.6436 87.16L47.1636 86.97C28.9936 79.75 15.9336 68.39 10.3936 55C5.32355 42.73 7.02355 30.03 14.8336 21.84C22.5536 13.75 30.7236 12.05 36.2236 12.05C39.7436 12.05 43.3436 12.75 46.6236 14.08C46.7036 14.11 46.7836 14.15 46.8636 14.18C46.9136 14.11 46.9736 14.04 47.0236 13.97C52.2736 7.31 60.1936 3.49 68.7536 3.49C71.9035 3.49 75.1736 3.99 78.4836 4.98C89.3236 8.23 97.0836 18.43 98.7536 31.6C100.564 45.98 94.8336 62.31 82.6236 77.57L82.3036 77.97C77.7536 83.66 74.1636 88.15 66.9636 90.06C65.0936 90.55 63.3136 90.79 61.5036 90.79L61.4936 90.81ZM36.2336 24.99C31.9036 24.99 27.8536 26.94 24.1836 30.78C20.0236 35.14 19.2936 42.71 22.3336 50.07C24.7636 55.94 31.8335 66.97 51.9235 74.96C56.7635 76.88 59.3936 77.89 61.4736 77.89C62.1436 77.89 62.8236 77.79 63.6236 77.58C66.4436 76.83 67.6436 75.58 72.4936 69.52C86.0036 52.64 86.6836 39.55 85.8936 33.25C84.8936 25.36 80.5236 19.14 74.7436 17.4C72.6536 16.77 70.6335 16.45 68.7435 16.45C62.4735 16.45 58.7936 19.93 57.1636 22L57.1136 22.07C56.2336 23.18 55.4935 24.13 54.8236 24.86C54.3236 25.42 53.8736 25.86 53.4036 26.23C52.4836 26.98 51.4836 27.5 50.4336 27.77C49.8136 27.93 49.1636 28.02 48.5036 28.02C48.0336 28.02 47.5736 27.98 47.0836 27.9C46.4936 27.8 45.8936 27.65 45.1735 27.41C44.2336 27.1 43.1136 26.64 41.8236 26.12L41.7236 26.08C39.9736 25.37 38.0636 24.99 36.2136 24.99H36.2336Z" fill="#199491"/>
<path d="M68.7536 7C71.4436 7 74.3536 7.41 77.4736 8.35C86.6436 11.1 93.7536 20.03 95.2736 32.05C96.7936 44.13 92.7436 59.33 79.8836 75.4L79.5636 75.8C75.1036 81.38 72.1436 85.08 66.0536 86.69C64.4336 87.12 62.9436 87.31 61.4936 87.31C57.4736 87.31 53.8136 85.85 48.9336 83.91L48.4536 83.72C29.3236 76.12 18.2836 64.92 13.6236 53.67C8.99362 42.47 10.7536 31.19 17.3636 24.26C23.5036 17.82 30.2336 15.55 36.2236 15.55C39.5536 15.55 42.6536 16.25 45.3036 17.32C46.5236 17.81 47.3636 18.15 47.9736 18.37C48.4036 17.88 48.9636 17.17 49.7736 16.14C53.5636 11.34 60.0036 6.99 68.7536 6.99M48.5236 24.52C48.2036 24.52 47.9136 24.48 47.6836 24.45C47.2036 24.37 46.7336 24.23 46.3036 24.09C45.4736 23.81 44.4036 23.38 43.1636 22.88L43.0636 22.84C41.0936 22.04 38.7636 21.5 36.2336 21.5C31.7136 21.5 26.5536 23.24 21.6536 28.37C16.9836 33.27 15.1836 41.93 19.1036 51.41C23.0036 60.83 32.6136 71.05 50.6336 78.22C55.9436 80.33 58.7636 81.4 61.4736 81.4C62.4636 81.4 63.4436 81.26 64.5236 80.97C68.5636 79.9 70.3636 77.79 75.2336 71.71C87.3536 56.57 90.6536 42.93 89.3736 32.81C88.0936 22.63 82.2436 15.99 75.7636 14.05C73.2236 13.29 70.8936 12.96 68.7536 12.96C61.9736 12.96 57.2136 16.3 54.4236 19.84L54.3636 19.92C53.5336 20.97 52.8236 21.87 52.2336 22.53C51.9236 22.87 51.5836 23.22 51.2136 23.53C50.8636 23.82 50.3036 24.21 49.5536 24.41C49.1836 24.51 48.8336 24.54 48.5236 24.54M48.6736 18.59C48.6736 18.59 48.6736 18.59 48.6636 18.59H48.6736ZM47.4736 18.9H47.4636H47.4736ZM68.7536 0C59.8936 0 51.6436 3.64 45.7636 10.06C42.6836 9.07 39.4236 8.56 36.2236 8.56C30.0436 8.56 20.8736 10.45 12.3036 19.43C3.51362 28.63 1.54362 42.78 7.15362 56.34C13.0536 70.61 26.8036 82.65 45.8636 90.22L46.3336 90.41C51.5836 92.5 56.1236 94.31 61.4836 94.31C63.5936 94.31 65.6736 94.03 67.8436 93.46C76.1636 91.26 80.2736 86.12 85.0236 80.17L85.3436 79.77C98.1536 63.76 104.154 46.5 102.214 31.17C100.374 16.61 91.6636 5.29 79.4836 1.64C75.8536 0.55 72.2436 0 68.7536 0ZM48.5236 31.52C49.4836 31.52 50.4336 31.4 51.3436 31.16C52.8836 30.75 54.3236 30.01 55.6236 28.94C56.2336 28.45 56.8036 27.89 57.4336 27.19C58.1736 26.37 58.9536 25.38 59.8536 24.24L59.9236 24.16C61.4436 22.24 64.2036 19.94 68.7636 19.94C70.3136 19.94 71.9936 20.21 73.7536 20.74C77.1336 21.75 81.4336 25.75 82.4336 33.67C83.1636 39.42 82.4836 51.44 69.7736 67.32C65.0636 73.2 64.3936 73.75 62.7336 74.19C62.0836 74.36 61.7236 74.38 61.4836 74.38C60.0436 74.38 57.4136 73.36 53.2236 71.7C34.3236 64.19 27.7836 54.08 25.5736 48.72C22.5236 41.34 24.2836 35.74 26.7136 33.19C29.6936 30.07 32.8936 28.49 36.2236 28.49C38.0036 28.49 39.4936 28.94 40.4236 29.32L40.5236 29.36C41.8736 29.91 43.0336 30.38 44.0836 30.73C44.9736 31.03 45.7536 31.22 46.5236 31.35C47.2036 31.46 47.8536 31.52 48.5136 31.52H48.5236Z" fill="white"/>
</g>
<defs>
<filter id="filter0_d_218_9194" x="0" y="0" width="106.571" height="102.31" filterUnits="userSpaceOnUse" color-interpolation-filters="sRGB">
<feFlood flood-opacity="0" result="BackgroundImageFix"/>
<feColorMatrix in="SourceAlpha" type="matrix" values="0 0 0 0 0 0 0 0 0 0 0 0 0 0 0 0 0 0 127 0" result="hardAlpha"/>
<feOffset dy="4"/>
<feGaussianBlur stdDeviation="2"/>
<feComposite in2="hardAlpha" operator="out"/>
<feColorMatrix type="matrix" values="0 0 0 0 0 0 0 0 0 0 0 0 0 0 0 0 0 0 0.25 0"/>
<feBlend mode="normal" in2="BackgroundImageFix" result="effect1_dropShadow_218_9194"/>
<feBlend mode="normal" in="SourceGraphic" in2="effect1_dropShadow_218_9194" result="shape"/>
</filter>
</defs>
</svg>
