<svg width="35" height="33" viewBox="0 0 35 33" fill="none" xmlns="http://www.w3.org/2000/svg">
<path d="M34.1444 8.20776C33.7986 4.53644 32.3318 2.01494 30.0091 1.10431C26.6404 -0.218396 22.3293 2.2109 18.828 7.32884L18.8079 7.30866L18.7819 7.34901C15.9434 4.99752 12.8946 4.21369 10.4624 5.27705C8.95237 5.93696 7.79391 7.22797 7.08213 9.02041C5.01593 9.10974 3.34166 9.82729 2.21778 11.1327C1.15155 12.369 0.658774 14.0404 0.799978 15.974C1.07086 19.7001 3.70187 24.1293 7.65559 27.5383C10.4192 29.9302 13.834 31.8984 17.488 32.4603C22.3236 33.2067 25.8421 30.1694 28.5135 26.4952C28.6547 26.2992 28.7959 26.1004 28.9342 25.9015C30.1907 24.1005 31.3116 22.0112 32.1935 19.7606C33.7698 15.7492 34.4614 11.6428 34.1415 8.21064M24.1938 26.2531C23.9402 27.4865 23.4676 28.7861 22.3927 29.5354C21.1882 30.3768 19.3669 30.6506 18.0701 29.8581C17.2661 29.3654 16.7244 28.5066 16.3699 27.6565C14.0559 22.0631 16.393 15.4294 19.1882 10.444C19.1537 10.5045 20.3352 11.8704 20.4735 12.0693C22.8538 15.4812 24.4215 19.6107 24.4215 23.8008C24.4215 24.622 24.3581 25.452 24.1909 26.256M11.2433 7.06083C13.0386 6.27989 15.4362 7.01185 17.7532 9.02041C17.2488 9.88492 16.7849 10.7955 16.3584 11.7436C16.3325 11.8013 16.3008 11.8589 16.2748 11.9194C15.9348 11.7033 15.5919 11.5044 15.2489 11.3114C13.3787 10.2567 11.3039 9.43249 9.1685 9.12991C9.59499 8.30862 10.2491 7.49886 11.2433 7.06372M8.9149 26.0888C6.47985 24.0428 4.40501 21.481 3.26097 18.5618C2.12845 15.6714 2.53765 11.7811 6.11099 11.0117C9.32987 10.3201 12.69 11.9482 15.3354 13.6369C15.3959 13.6744 15.4564 13.7176 15.5169 13.7551C15.4939 13.8127 15.4737 13.8675 15.4564 13.9222C13.7043 18.7376 12.2116 25.4145 15.4478 29.9619C15.2345 29.6622 14.0501 29.3971 13.687 29.2213C13.0415 28.9072 12.4104 28.5556 11.8024 28.1781C10.8111 27.5614 9.83994 26.8611 8.92067 26.086M30.3837 19.0459C29.4501 21.4176 28.1879 24.5183 26.211 26.2243C26.5165 25.962 26.2773 24.6307 26.2715 24.2503C26.2571 23.3541 26.2225 22.4579 26.1418 21.5617C25.9027 18.9278 25.1015 16.4178 23.9229 14.0577C23.0238 12.2566 21.9028 10.542 20.5542 9.04346C20.4504 8.93107 20.3496 8.81869 20.243 8.7063C23.1737 4.30879 26.8363 1.9429 29.3002 2.91116C30.8765 3.53073 31.9399 5.52776 32.2079 8.38354C32.2511 8.8792 32.277 9.39215 32.277 9.91374C32.277 12.7177 31.6229 15.8991 30.3866 19.043" fill="#68C35C"/>
</svg>
