<svg width="305" height="597" viewBox="0 0 305 597" fill="none" xmlns="http://www.w3.org/2000/svg">
<mask id="path-1-inside-1_85_8843" fill="white">
<path d="M195.163 127.384C173.052 71.4399 137.423 38.1661 94.7379 33.6597C32.8205 27.0931 -28.0488 83.1273 -63.4706 177.8L-63.896 177.569L-64.1475 178.309C-121.831 153.439 -176.028 153.956 -211.737 180.767C-233.909 197.408 -247.422 222.443 -251.272 253.445C-285.235 263.496 -309.881 281.726 -322.755 306.841C-334.978 330.633 -335.725 358.826 -324.76 388.462C-303.652 445.576 -240.16 503.795 -159.217 540.527C-102.599 566.342 -37.0388 582.806 26.233 576.285C109.976 567.698 154.956 505.478 183.009 436.851C184.484 433.196 185.947 429.496 187.361 425.808C200.23 392.39 209.563 355.034 214.198 316.157C222.538 246.846 215.741 179.754 195.128 127.441M110.092 451.161C111.371 471.504 109.303 493.801 94.766 510.016C78.4834 528.216 49.4152 540.124 24.318 533.167C8.75135 528.832 -4.08502 517.677 -13.7678 505.872C-77.1757 428.125 -67.8698 314.633 -43.5987 224.989C-43.9042 226.08 -18.1686 242.484 -14.9822 245.013C39.8072 288.381 84.2794 346.369 102.951 411.87C106.61 424.709 109.254 437.949 110.057 451.218M-190.801 205.381C-164.424 185.653 -121.29 187.052 -73.8085 208.746C-78.3429 224.373 -82.0009 240.552 -84.8689 257.16C-85.0434 258.17 -85.3137 259.203 -85.4753 260.258C-92.0935 258.304 -98.6825 256.632 -105.246 255.05C-141.048 246.396 -179.226 242.203 -216.087 246.417C-212.654 231.792 -205.383 216.393 -190.788 205.426M-144.733 512.592C-194.346 490.808 -240.268 459.45 -272.302 418.608C-304.016 378.167 -314.546 315.637 -258.549 288.641C-208.099 264.347 -144.965 275.725 -93.4452 291.042C-92.2719 291.374 -91.0729 291.797 -89.8995 292.129C-90.0261 293.126 -90.1175 294.067 -90.1611 294.995C-97.8413 377.611 -92.9128 488.242 -18.8306 545.774C-23.7125 541.982 -44.5906 542.798 -51.4124 541.571C-63.5471 539.365 -75.6092 536.512 -87.4034 533.158C-106.637 527.67 -125.908 520.791 -144.65 512.523M180.917 312.565C175.958 353.551 168.785 407.311 143.511 442.261C147.422 436.882 137.512 417.071 135.721 411.149C131.488 397.199 126.919 383.333 121.584 369.661C105.869 329.488 81.3614 293.606 51.2434 261.648C28.2654 237.259 1.98233 215.15 -27.1236 197.374C-29.3497 196.052 -31.5277 194.717 -33.8018 193.407C-4.65866 112.386 45.7102 60.059 91 64.8749C119.975 67.9576 146.558 94.7224 163.741 138.243C166.668 145.811 169.386 153.721 171.71 161.875C184.204 205.707 187.502 258.181 180.953 312.508"/>
</mask>
<path d="M94.7379 33.6597L94.5753 35.6327L94.5762 35.6328L94.7379 33.6597ZM-63.4706 177.8L-64.4069 179.532L-62.3665 180.64L-61.5772 178.53L-63.4706 177.8ZM-63.896 177.569L-62.9598 175.837L-65.0614 174.697L-65.8089 176.894L-63.896 177.569ZM-64.1475 178.309L-64.9141 180.123L-62.9154 180.985L-62.2347 178.984L-64.1475 178.309ZM-211.737 180.767L-210.489 182.357L-210.488 182.357L-211.737 180.767ZM-251.272 253.445L-250.644 255.346L-249.426 254.986L-249.271 253.737L-251.272 253.445ZM-322.755 306.841L-320.951 307.774L-320.951 307.773L-322.755 306.841ZM-324.76 388.462L-322.868 387.828L-322.869 387.827L-324.76 388.462ZM-159.217 540.527L-158.411 538.73L-158.414 538.729L-159.217 540.527ZM26.233 576.285L25.9712 574.311L25.9702 574.311L26.233 576.285ZM183.009 436.851L184.882 437.634L184.885 437.626L183.009 436.851ZM187.361 425.808L185.474 425.062L185.473 425.064L187.361 425.808ZM214.198 316.157L212.197 315.872L212.197 315.874L214.198 316.157ZM94.766 510.016L93.2395 508.68L93.2382 508.682L94.766 510.016ZM24.318 533.167L23.8179 535.076L23.8204 535.077L24.318 533.167ZM-13.7678 505.872L-15.326 507.089L-15.3224 507.093L-13.7678 505.872ZM-43.5987 224.989L-41.6504 225.548L-45.5428 224.415L-43.5987 224.989ZM-14.9822 245.013L-16.2213 246.545L-16.2191 246.547L-14.9822 245.013ZM-73.8085 208.746L-71.8694 209.338L-71.39 207.686L-73.0008 206.95L-73.8085 208.746ZM-84.8689 257.16L-82.8817 257.544L-82.8817 257.543L-84.8689 257.16ZM-85.4753 260.258L-86.0065 262.158L-83.8192 262.803L-83.4822 260.605L-85.4753 260.258ZM-105.246 255.05L-105.677 256.976L-105.675 256.977L-105.246 255.05ZM-216.087 246.417L-218.051 245.922L-218.708 248.721L-215.801 248.389L-216.087 246.417ZM-272.302 418.608L-273.884 419.794L-273.884 419.794L-272.302 418.608ZM-258.549 288.641L-259.473 286.854L-259.474 286.855L-258.549 288.641ZM-93.4452 291.042L-93.9801 292.941L-93.967 292.945L-93.9539 292.948L-93.4452 291.042ZM-89.8995 292.129L-87.8995 292.427L-87.6813 290.707L-89.3909 290.223L-89.8995 292.129ZM-90.1611 294.995L-88.154 295.228L-88.1499 295.184L-88.1478 295.14L-90.1611 294.995ZM-18.8306 545.774L-20.0523 547.319L-17.6087 544.228L-18.8306 545.774ZM-51.4124 541.571L-51.7268 543.523L-51.723 543.523L-51.4124 541.571ZM-87.4034 533.158L-87.9162 535.063L-87.9145 535.063L-87.4034 533.158ZM143.511 442.261L141.859 441.081L145.16 443.444L143.511 442.261ZM135.721 411.149L137.651 410.63L137.651 410.628L135.721 411.149ZM121.584 369.661L123.462 368.993L123.462 368.992L121.584 369.661ZM51.2434 261.648L49.783 262.977L49.7832 262.977L51.2434 261.648ZM-27.1236 197.374L-26.0947 195.695L-26.1057 195.689L-26.1167 195.682L-27.1236 197.374ZM-33.8018 193.407L-35.7036 192.7L-36.2647 194.26L-34.7847 195.113L-33.8018 193.407ZM91 64.8749L91.1633 62.9019L91.1632 62.9019L91 64.8749ZM163.741 138.243L165.622 137.581L165.617 137.568L163.741 138.243ZM195.163 127.384L197.038 126.707C174.78 70.3887 138.658 36.3064 94.8995 31.6866L94.7379 33.6597L94.5762 35.6328C136.187 40.0258 171.324 72.491 193.287 128.06L195.163 127.384ZM94.7379 33.6597L94.9005 31.6867C63.2101 28.3258 31.9754 41.0116 4.30575 66.2939C-23.3596 91.5721 -47.5778 129.533 -65.3641 177.071L-63.4706 177.8L-61.5772 178.53C-43.9416 131.395 -20.0143 94.0018 7.08981 69.2364C34.1895 44.4749 64.3482 32.427 94.5753 35.6327L94.7379 33.6597ZM-63.4706 177.8L-62.5344 176.068L-62.9598 175.837L-63.896 177.569L-64.8322 179.301L-64.4069 179.532L-63.4706 177.8ZM-63.896 177.569L-65.8089 176.894L-66.0604 177.633L-64.1475 178.309L-62.2347 178.984L-61.9832 178.245L-63.896 177.569ZM-64.1475 178.309L-63.381 176.494C-121.435 151.464 -176.487 151.774 -212.986 179.177L-211.737 180.767L-210.488 182.357C-175.568 156.139 -122.227 155.413 -64.9141 180.123L-64.1475 178.309ZM-211.737 180.767L-212.986 179.177C-235.635 196.176 -249.368 221.711 -253.272 253.152L-251.272 253.445L-249.271 253.737C-245.475 223.174 -232.183 198.64 -210.489 182.357L-211.737 180.767ZM-251.272 253.445L-251.899 251.543C-286.235 261.704 -311.387 280.211 -324.559 305.91L-322.755 306.841L-320.951 307.773C-308.376 283.241 -284.235 265.287 -250.644 255.346L-251.272 253.445ZM-322.755 306.841L-324.558 305.908C-337.068 330.258 -337.776 359.029 -326.652 389.097L-324.76 388.462L-322.869 387.827C-333.674 358.623 -332.888 331.009 -320.951 307.774L-322.755 306.841ZM-324.76 388.462L-326.652 389.096C-305.282 446.917 -241.24 505.468 -160.02 542.325L-159.217 540.527L-158.414 538.729C-239.08 502.123 -302.021 444.234 -322.868 387.828L-324.76 388.462ZM-159.217 540.527L-160.023 542.324C-103.186 568.239 -37.2472 584.829 26.4958 578.259L26.233 576.285L25.9702 574.311C-36.8305 580.784 -102.013 564.445 -158.411 538.73L-159.217 540.527ZM26.233 576.285L26.4947 578.259C111.353 569.557 156.746 506.464 184.882 437.634L183.009 436.851L181.137 436.068C153.167 504.492 108.598 565.838 25.9712 574.311L26.233 576.285ZM183.009 436.851L184.885 437.626C186.364 433.963 187.83 430.252 189.249 426.553L187.361 425.808L185.473 425.064C184.063 428.74 182.605 432.429 181.134 436.076L183.009 436.851ZM187.361 425.808L189.248 426.555C202.176 392.984 211.546 355.472 216.2 316.44L214.198 316.157L212.197 315.874C207.579 354.596 198.284 391.796 185.474 425.062L187.361 425.808ZM214.198 316.157L216.2 316.442C224.569 246.89 217.766 179.456 197.004 126.767L195.128 127.441L193.251 128.115C213.716 180.053 220.507 246.802 212.197 315.872L214.198 316.157ZM110.092 451.161L108.081 451.23C109.351 471.441 107.242 493.061 93.2395 508.68L94.766 510.016L96.2926 511.351C111.364 494.54 113.391 471.567 112.104 451.091L110.092 451.161ZM94.766 510.016L93.2382 508.682C77.3209 526.473 48.9913 537.959 24.8157 531.258L24.318 533.167L23.8204 535.077C49.8391 542.289 79.6459 529.958 96.2938 511.35L94.766 510.016ZM24.318 533.167L24.8182 531.259C9.83909 527.087 -2.65965 516.298 -12.2134 504.65L-13.7678 505.872L-15.3224 507.093C-5.51042 519.056 7.66365 530.577 23.8179 535.076L24.318 533.167ZM-13.7678 505.872L-12.2097 504.655C-74.9459 427.731 -65.9011 315.116 -41.6504 225.548L-43.5987 224.989L-45.5471 224.43C-69.8386 314.149 -79.4056 428.518 -15.326 507.089L-13.7678 505.872ZM-43.5987 224.989L-45.5428 224.415C-45.6858 224.926 -45.5911 225.362 -45.5163 225.598C-45.4382 225.843 -45.3301 226.034 -45.2564 226.15C-45.1097 226.383 -44.9377 226.575 -44.8138 226.705C-44.5524 226.978 -44.2118 227.276 -43.8522 227.57C-43.1167 228.173 -42.0786 228.946 -40.8601 229.817C-38.4122 231.568 -35.101 233.816 -31.7032 236.093C-24.8118 240.712 -17.7267 245.35 -16.2213 246.545L-14.9822 245.013L-13.743 243.482C-15.4241 242.147 -22.7999 237.319 -29.4966 232.831C-32.8929 230.555 -36.1574 228.339 -38.5486 226.628C-39.7497 225.769 -40.697 225.061 -41.3229 224.548C-41.644 224.285 -41.828 224.115 -41.9116 224.028C-41.9602 223.977 -41.9158 224.015 -41.8487 224.121C-41.8149 224.174 -41.7347 224.309 -41.6721 224.505C-41.6127 224.692 -41.5213 225.087 -41.6547 225.564L-43.5987 224.989ZM-14.9822 245.013L-16.2191 246.547C38.3116 289.71 82.482 347.356 101.011 412.359L102.951 411.87L104.89 411.382C86.0768 345.383 41.3027 287.052 -13.7452 243.48L-14.9822 245.013ZM102.951 411.87L101.011 412.359C104.642 425.097 107.253 438.192 108.045 451.283L110.057 451.218L112.069 451.153C111.255 437.707 108.578 424.322 104.89 411.382L102.951 411.87ZM-190.801 205.381L-189.555 206.973C-164.048 187.895 -121.831 188.97 -74.6162 210.543L-73.8085 208.746L-73.0008 206.95C-120.748 185.134 -164.801 183.41 -192.047 203.789L-190.801 205.381ZM-73.8085 208.746L-75.7476 208.154C-80.3036 223.856 -83.977 240.105 -86.8561 256.777L-84.8689 257.16L-82.8817 257.543C-80.0247 240.999 -76.3821 224.891 -71.8694 209.338L-73.8085 208.746ZM-84.8689 257.16L-86.856 256.776C-86.9355 257.236 -87.037 257.703 -87.1502 258.237C-87.26 258.754 -87.3784 259.323 -87.4684 259.911L-85.4753 260.258L-83.4822 260.605C-83.4106 260.138 -83.3131 259.663 -83.2036 259.147C-83.0976 258.648 -82.9768 258.093 -82.8817 257.544L-84.8689 257.16ZM-85.4753 260.258L-84.9441 258.358C-91.6111 256.39 -98.2388 254.708 -104.816 253.123L-105.246 255.05L-105.675 256.977C-99.1262 258.555 -92.5758 260.218 -86.0065 262.158L-85.4753 260.258ZM-105.246 255.05L-104.815 253.123C-140.785 244.429 -179.213 240.197 -216.372 244.446L-216.087 246.417L-215.801 248.389C-179.24 244.208 -141.312 248.363 -105.677 256.976L-105.246 255.05ZM-216.087 246.417L-214.122 246.913C-210.755 232.569 -203.663 217.629 -189.539 207.016L-190.788 205.426L-192.038 203.837C-207.103 215.157 -214.552 231.015 -218.051 245.922L-216.087 246.417ZM-144.733 512.592L-143.954 510.784C-193.346 489.096 -238.952 457.923 -270.719 417.421L-272.302 418.608L-273.884 419.794C-241.583 460.977 -195.347 492.519 -145.513 514.401L-144.733 512.592ZM-272.302 418.608L-270.719 417.421C-286.358 397.479 -296.695 372.175 -296.302 348.669C-295.91 325.294 -284.926 303.59 -257.624 290.428L-258.549 288.641L-259.474 286.855C-288.169 300.688 -299.918 323.748 -300.332 348.497C-300.744 373.115 -289.959 399.296 -273.884 419.794L-272.302 418.608ZM-258.549 288.641L-257.624 290.429C-207.916 266.491 -145.463 277.634 -93.9801 292.941L-93.4452 291.042L-92.9103 289.144C-144.466 273.815 -208.283 262.202 -259.473 286.854L-258.549 288.641ZM-93.4452 291.042L-93.9539 292.948C-93.4048 293.104 -92.8437 293.282 -92.2449 293.472C-91.6576 293.659 -91.0324 293.858 -90.4082 294.035L-89.8995 292.129L-89.3909 290.223C-89.94 290.067 -90.501 289.889 -91.0999 289.699C-91.6872 289.512 -92.3124 289.313 -92.9366 289.136L-93.4452 291.042ZM-89.8995 292.129L-91.8995 291.831C-92.0305 292.863 -92.1278 293.857 -92.1744 294.851L-90.1611 294.995L-88.1478 295.14C-88.1073 294.277 -88.0217 293.39 -87.8995 292.427L-89.8995 292.129ZM-90.1611 294.995L-92.1682 294.762C-96.017 336.164 -96.7197 384.695 -87.1296 430.144C-77.5392 475.596 -57.6131 518.15 -20.0523 547.319L-18.8306 545.774L-17.6088 544.228C-54.1303 515.866 -73.7095 474.339 -83.1839 429.437C-92.6586 384.535 -91.9854 336.442 -88.154 295.228L-90.1611 294.995ZM-18.8306 545.774L-17.6087 544.228C-18.4904 543.543 -19.6079 543.05 -20.7651 542.673C-21.9443 542.288 -23.2922 541.984 -24.7247 541.736C-27.5879 541.24 -30.9579 540.943 -34.3184 540.73C-37.6716 540.518 -41.1257 540.384 -44.0779 540.231C-47.0947 540.074 -49.5469 539.899 -51.1018 539.62L-51.4124 541.571L-51.723 543.523C-49.867 543.857 -47.1513 544.04 -44.1823 544.194C-41.1486 544.352 -37.799 544.48 -34.4697 544.691C-31.1477 544.901 -27.9564 545.188 -25.3187 545.644C-24.0008 545.872 -22.8634 546.136 -21.9397 546.437C-20.9941 546.745 -20.3912 547.056 -20.0525 547.319L-18.8306 545.774ZM-51.4124 541.571L-51.098 539.62C-63.1617 537.427 -75.1581 534.59 -86.8923 531.253L-87.4034 533.158L-87.9145 535.063C-76.0602 538.435 -63.9324 541.303 -51.7268 543.523L-51.4124 541.571ZM-87.4034 533.158L-86.8905 531.253C-106.037 525.79 -125.217 518.943 -143.868 510.716L-144.65 512.523L-145.433 514.331C-126.599 522.639 -107.238 529.55 -87.9162 535.063L-87.4034 533.158ZM180.917 312.565L178.916 312.279C176.436 332.774 173.414 356.357 167.871 379.166C162.326 401.987 154.288 423.893 141.859 441.081L143.511 442.261L145.163 443.44C158.007 425.679 166.194 403.23 171.793 380.187C177.395 357.132 180.44 333.343 182.919 312.852L180.917 312.565ZM143.511 442.261L145.16 443.444C145.922 442.397 146.261 441.125 146.38 439.857C146.499 438.578 146.407 437.17 146.189 435.724C145.755 432.836 144.779 429.533 143.659 426.311C142.535 423.076 141.233 419.833 140.114 417.062C138.973 414.236 138.066 412 137.651 410.63L135.721 411.149L133.791 411.668C134.272 413.259 135.275 415.719 136.374 418.442C137.495 421.219 138.761 424.376 139.849 427.506C140.942 430.649 141.822 433.678 142.202 436.202C142.392 437.462 142.446 438.531 142.366 439.388C142.284 440.256 142.078 440.779 141.862 441.077L143.511 442.261ZM135.721 411.149L137.651 410.628C133.409 396.649 128.823 382.731 123.462 368.993L121.584 369.661L119.705 370.329C125.015 383.936 129.567 397.748 133.791 411.67L135.721 411.149ZM121.584 369.661L123.462 368.992C107.635 328.532 82.9673 292.432 52.7037 260.32L51.2434 261.648L49.7832 262.977C79.7554 294.781 104.103 330.445 119.705 370.331L121.584 369.661ZM51.2434 261.648L52.704 260.32C29.6153 235.813 3.19 213.581 -26.0947 195.695L-27.1236 197.374L-28.1525 199.053C0.774683 216.72 26.9154 238.705 49.783 262.977L51.2434 261.648ZM-27.1236 197.374L-26.1167 195.682C-28.3085 194.38 -30.5309 193.019 -32.8189 191.701L-33.8018 193.407L-34.7847 195.113C-32.5246 196.415 -30.3908 197.723 -28.1305 199.066L-27.1236 197.374ZM-33.8018 193.407L-31.8999 194.114C-17.3955 153.79 2.35784 120.708 24.0203 98.3417C45.7238 75.9333 69.0768 64.5339 90.8368 66.8478L91 64.8749L91.1632 62.9019C67.6334 60.3999 43.1571 72.7562 21.0679 95.5626C-1.06226 118.411 -21.0649 152.003 -35.7036 192.7L-33.8018 193.407ZM91 64.8749L90.8367 66.8478C118.641 69.806 144.776 95.6364 161.865 138.919L163.741 138.243L165.617 137.568C148.34 93.8084 121.309 66.1093 91.1633 62.9019L91 64.8749ZM163.741 138.243L161.86 138.906C164.768 146.424 167.465 154.276 169.77 162.363L171.71 161.875L173.649 161.386C171.306 153.166 168.568 145.197 165.622 137.581L163.741 138.243ZM171.71 161.875L169.77 162.363C182.18 205.898 185.476 258.103 178.951 312.222L180.953 312.508L182.954 312.794C189.529 258.259 186.229 205.517 173.649 161.386L171.71 161.875Z" fill="#68C35C" mask="url(#path-1-inside-1_85_8843)"/>
</svg>
