<svg width="109" height="34" viewBox="0 0 109 34" fill="none" xmlns="http://www.w3.org/2000/svg">
<path d="M34.1444 8.20776C33.7986 4.53644 32.3318 2.01494 30.0092 1.10431C26.6404 -0.218396 22.3294 2.2109 18.8281 7.32884L18.8079 7.30866L18.782 7.34901C15.9435 4.99752 12.8946 4.21369 10.4625 5.27705C8.95243 5.93696 7.79397 7.22797 7.08219 9.02041C5.01599 9.10974 3.34172 9.82729 2.21785 11.1327C1.15161 12.369 0.658835 14.0404 0.800039 15.974C1.07092 19.7001 3.70193 24.1293 7.65565 27.5383C10.4192 29.9302 13.8341 31.8984 17.4881 32.4603C22.3236 33.2067 25.8422 30.1694 28.5136 26.4952C28.6548 26.2992 28.796 26.1004 28.9343 25.9015C30.1907 24.1005 31.3117 22.0112 32.1935 19.7606C33.7698 15.7492 34.4614 11.6428 34.1416 8.21064M24.1939 26.2531C23.9403 27.4865 23.4677 28.7861 22.3928 29.5354C21.1882 30.3768 19.367 30.6506 18.0702 29.8581C17.2662 29.3654 16.7244 28.5066 16.37 27.6565C14.056 22.0631 16.393 15.4294 19.1883 10.444C19.1537 10.5045 20.3352 11.8704 20.4736 12.0693C22.8539 15.4812 24.4215 19.6107 24.4215 23.8008C24.4215 24.622 24.3581 25.452 24.191 26.256M11.2434 7.06083C13.0387 6.27989 15.4363 7.01185 17.7532 9.02041C17.2489 9.88492 16.7849 10.7955 16.3585 11.7436C16.3325 11.8013 16.3008 11.8589 16.2749 11.9194C15.9348 11.7033 15.5919 11.5044 15.249 11.3114C13.3788 10.2567 11.3039 9.43249 9.16856 9.12991C9.59505 8.30862 10.2492 7.49886 11.2434 7.06372M8.91496 26.0888C6.47991 24.0428 4.40507 21.481 3.26103 18.5618C2.12851 15.6714 2.53772 11.7811 6.11105 11.0117C9.32993 10.3201 12.69 11.9482 15.3354 13.6369C15.396 13.6744 15.4565 13.7176 15.517 13.7551C15.4939 13.8127 15.4738 13.8675 15.4565 13.9222C13.7044 18.7376 12.2117 25.4145 15.4478 29.9619C15.2346 29.6622 14.0502 29.3971 13.6871 29.2213C13.0416 28.9072 12.4105 28.5556 11.8025 28.1781C10.8111 27.5614 9.84 26.8611 8.92073 26.086M30.3838 19.0459C29.4501 21.4176 28.1879 24.5183 26.2111 26.2243C26.5165 25.962 26.2773 24.6307 26.2716 24.2503C26.2572 23.3541 26.2226 22.4579 26.1419 21.5617C25.9027 18.9278 25.1016 16.4178 23.923 14.0577C23.0239 12.2566 21.9029 10.542 20.5542 9.04346C20.4505 8.93107 20.3496 8.81869 20.243 8.7063C23.1737 4.30879 26.8364 1.9429 29.3003 2.91116C30.8766 3.53073 31.9399 5.52776 32.2079 8.38354C32.2512 8.8792 32.2771 9.39215 32.2771 9.91374C32.2771 12.7177 31.6229 15.8991 30.3867 19.043" fill="#68C35C"/>
<path d="M8.78541 31.8149V32.0801H8.34163V33.325H8.03617V32.0801H7.59814V31.8149H8.78541ZM9.34447 31.8149L9.80554 32.7746L10.2666 31.8149H10.6182V33.325H10.3415V32.2558L9.9064 33.1693H9.70468L9.27242 32.2558V33.325H8.9929V31.8149H9.34447Z" fill="#68C35C"/>
<path d="M61.3968 25.138C61.3968 22.5992 59.8839 20.873 57.0742 20.873C54.5729 20.873 53.1003 22.3081 52.8871 24.4982H54.5931C54.7487 22.8902 55.7573 22.2678 57.0944 22.2678C58.8004 22.2678 59.5957 23.1006 59.6735 24.8469L55.8927 25.2158C53.6046 25.4291 52.6738 26.4953 52.6738 28.0284C52.6738 29.037 53.1003 30.8986 55.9302 30.8986C58.2759 30.8986 59.3047 29.5211 59.6706 28.0485H60.1548L59.8839 29.0773V29.5413C59.8839 30.279 60.3104 30.7055 61.0481 30.7055H62.8117V29.2329H61.3968V25.1409V25.138ZM56.2011 29.4807C55.0945 29.4807 54.3769 28.9188 54.3769 27.8122C54.3769 26.8814 54.9965 26.5529 56.1809 26.4348L59.6706 26.0659C59.6706 28.0053 58.2932 29.4779 56.2011 29.4779V29.4807Z" fill="#006173"/>
<path d="M70.2409 20.873C68.1459 20.873 66.924 22.0949 66.5379 23.8383H66.0537L66.3448 22.6741V21.0661H64.6187V30.7026H66.3448V26.4751C66.3448 23.8786 67.7396 22.3456 69.7568 22.3456C71.3849 22.3456 72.1601 23.1006 72.1601 25.0976V30.6997H73.8661V24.8642C73.8661 22.1496 72.431 20.8701 70.2409 20.8701V20.873Z" fill="#006173"/>
<path d="M80.7102 29.5211C78.7131 29.5211 77.7247 28.086 77.6671 26.2042H85.3238V25.5847C85.3238 22.5992 83.4622 20.873 80.6122 20.873C77.7622 20.873 75.9985 22.6367 75.9985 25.7576C75.9985 28.6076 77.5892 30.8957 80.7303 30.8957C83.6956 30.8957 84.9751 29.1119 85.3641 27.3281H83.6581C83.3296 28.6652 82.3585 29.5182 80.7102 29.5182V29.5211ZM80.6122 22.2303C82.3383 22.2303 83.5198 23.2389 83.638 24.9824H77.6872C77.8227 23.2389 79.0243 22.2303 80.6151 22.2303H80.6122Z" fill="#006173"/>
<path d="M96.0091 25.138C96.0091 22.5992 94.4962 20.873 91.6865 20.873C89.1852 20.873 87.7126 22.3081 87.4994 24.4982H89.2054C89.361 22.8902 90.3696 22.2678 91.7067 22.2678C93.4127 22.2678 94.208 23.1006 94.2858 24.8469L90.505 25.2158C88.2169 25.4291 87.2861 26.4953 87.2861 28.0284C87.2861 29.037 87.7126 30.8986 90.5425 30.8986C92.8882 30.8986 93.917 29.5211 94.283 28.0485H94.7671L94.4962 29.0773V29.5413C94.4962 30.279 94.9227 30.7055 95.6604 30.7055H97.424V29.2329H96.0091V25.1409V25.138ZM90.8134 29.4807C89.7068 29.4807 88.9892 28.9188 88.9892 27.8122C88.9892 26.8814 89.6088 26.5529 90.7932 26.4348L94.283 26.0659C94.283 28.0053 92.9055 29.4779 90.8134 29.4779V29.4807Z" fill="#006173"/>
<path d="M104.948 20.8731C102.853 20.8731 101.574 22.095 101.147 23.8384H100.643L100.954 22.6742V19.1182H99.228V30.7027H100.954V26.6106C100.954 24.0142 102.254 22.3457 104.346 22.3457C105.994 22.3457 106.749 23.1209 106.749 25.0977V30.6998H108.455V24.9018C108.455 22.3025 107.138 20.8674 104.945 20.8674L104.948 20.8731Z" fill="#006173"/>
<path d="M48.8123 25.2937C48.8123 27.8901 47.4176 29.4232 45.4003 29.4232C43.7722 29.4232 42.997 28.6681 42.997 26.6682V21.0662H41.291V26.9016C41.291 29.6162 42.7261 30.8957 44.9162 30.8957C47.1063 30.8957 48.2302 29.6739 48.6192 27.9304H49.1034L48.8123 29.0946V32.7832H50.5385V21.069H48.8123V25.2965V25.2937Z" fill="#006173"/>
<path d="M92.1361 12.6688L91.8652 11.5219H92.332C92.721 13.2711 93.9458 14.4987 96.0466 14.4987C96.0466 14.4987 96.0466 14.4987 96.0494 14.4987H104.798C107.017 14.4987 108.455 13.1961 108.455 10.4931V4.63742H106.723V10.2597C106.723 12.2336 105.971 13.0117 104.337 13.0203H95.5423C93.5481 13.0117 92.1361 11.4786 92.1361 8.85914V1.32056H90.4243V14.3056H92.1361V12.6717V12.6688Z" fill="#006173"/>
<path d="M46.8871 3.16486C47.6162 3.16486 48.2012 2.63174 48.2012 1.91995C48.2012 1.20817 47.6162 0.675049 46.8871 0.675049C46.158 0.675049 45.5903 1.20817 45.5903 1.91995C45.5903 2.63174 46.1407 3.16486 46.8871 3.16486Z" fill="#006173"/>
<path d="M43.2072 3.16486C43.9536 3.16486 44.5242 2.63174 44.5242 1.91995C44.5242 1.20817 43.9565 0.675049 43.2072 0.675049C42.458 0.675049 41.9277 1.20817 41.9277 1.91995C41.9277 2.63174 42.4781 3.16486 43.2072 3.16486Z" fill="#006173"/>
<path d="M102.726 17.1182C102.726 17.83 103.276 18.3631 104.006 18.3631C104.735 18.3631 105.323 17.83 105.323 17.1182C105.323 16.4064 104.755 15.8733 104.006 15.8733C103.256 15.8733 102.726 16.4064 102.726 17.1182Z" fill="#006173"/>
<path d="M107.686 15.8762C106.94 15.8762 106.389 16.4093 106.389 17.1211C106.389 17.8329 106.94 18.366 107.686 18.366C108.432 18.366 109 17.8329 109 17.1211C109 16.4093 108.415 15.8762 107.686 15.8762Z" fill="#006173"/>
<path d="M84.7475 0.868164C84.0011 0.868164 83.4507 1.40128 83.4507 2.11307C83.4507 2.82485 84.0011 3.35797 84.7475 3.35797C85.4938 3.35797 86.0615 2.82485 86.0615 2.11307C86.0615 1.40128 85.4765 0.868164 84.7475 0.868164Z" fill="#006173"/>
<path d="M84.0124 10.4498C84.0124 12.4324 83.2545 13.2134 81.6004 13.2134H71.3472C70.9841 13.2134 70.6182 13.1385 70.2608 13.0664C69.9035 12.9944 69.5433 12.8935 69.1802 12.7638C69.9064 12.2567 70.5317 11.6544 71.0562 10.9541C71.5807 10.2539 71.9841 9.48445 72.2636 8.64875C72.5431 7.81305 72.6815 6.94565 72.6815 6.05231C72.059 5.62582 71.3328 5.28001 70.5029 5.02066C69.6729 4.7613 68.8488 4.63163 68.0332 4.63163C67.4252 4.63163 66.8143 4.71807 66.2034 4.89386C65.5924 5.06964 65.0132 5.31459 64.4628 5.63158C63.9124 5.94857 63.3966 6.32896 62.9153 6.76986C63.0335 7.47012 63.2726 8.21361 63.6357 8.99743C63.9988 9.78126 64.4397 10.519 64.9585 11.2048C65.2178 11.542 65.4772 11.8446 65.7365 12.1097C65.9959 12.3748 66.2495 12.5996 66.4944 12.7811C66.1947 12.9108 65.8518 13.0088 65.4628 13.0722C65.0737 13.1356 64.6616 13.2076 64.1948 13.2076H51.5584H49.4231V4.1936H47.7949V5.39816H46.5298C45.4578 5.39816 44.5299 5.597 43.7432 5.9918C42.9594 6.3866 42.3513 6.94565 41.9248 7.66608C41.4955 8.38651 41.2822 9.25103 41.2822 10.2596C41.2822 11.1789 41.4724 11.9714 41.8557 12.6342C42.239 13.297 42.7923 13.8041 43.5213 14.1557C44.2475 14.5073 45.1236 14.6831 46.1437 14.6831H64.1919C64.8259 14.6831 65.4455 14.6024 66.0506 14.441C66.6529 14.2796 67.2408 14.0347 67.8114 13.7119C68.4079 14.0376 69.0217 14.2796 69.6499 14.441C70.2781 14.6024 70.866 14.6831 71.4106 14.6831H82.1047C84.3092 14.6715 85.7357 13.369 85.7357 10.6746V4.62586H84.0038V10.4412L84.0124 10.4498ZM47.8007 13.199H46.1149C45.1178 13.199 44.3513 12.9483 43.8066 12.444C43.2648 11.9397 42.994 11.2106 42.994 10.251C42.994 9.19051 43.3052 8.36922 43.9334 7.78135C44.5587 7.19636 45.4463 6.90242 46.5932 6.90242H47.8007V13.2019V13.199ZM67.8402 11.9109C67.3359 11.5218 66.8748 11.0838 66.4598 10.5968C66.0449 10.1098 65.6933 9.58531 65.408 9.02049C65.1227 8.45567 64.9152 7.87645 64.7855 7.27993C65.1602 7.02057 65.5319 6.81021 65.895 6.64883C66.2581 6.48746 66.6241 6.36354 66.9929 6.27997C67.3618 6.1964 67.7278 6.15318 68.0909 6.15318C68.5693 6.15318 69.0447 6.21081 69.5116 6.32896C69.9784 6.44711 70.4395 6.62866 70.8919 6.87361C70.8256 7.93696 70.5519 8.87352 70.0649 9.68329C69.5779 10.493 68.8372 11.2365 67.8373 11.9109H67.8402Z" fill="#006173"/>
</svg>
