<svg width="95" height="60" viewBox="0 0 95 60" fill="none" xmlns="http://www.w3.org/2000/svg">
<path d="M32.7962 7.2518C32.46 3.68258 31.034 1.23119 28.7759 0.345886C25.5008 -0.940044 21.3096 1.4217 17.9057 6.39732L17.8861 6.37771L17.8609 6.41693C15.1013 4.13083 12.1372 3.3688 9.7727 4.40259C8.30467 5.04415 7.17842 6.29926 6.48643 8.04185C4.47769 8.1287 2.84997 8.8263 1.75735 10.0954C0.720764 11.2973 0.241693 12.9222 0.378971 14.8021C0.64232 18.4245 3.20017 22.7306 7.04395 26.0449C9.73067 28.3702 13.0506 30.2837 16.603 30.83C21.304 31.5556 24.7248 28.6027 27.3219 25.0307C27.4591 24.8402 27.5964 24.6469 27.7309 24.4536C28.9524 22.7026 30.0422 20.6714 30.8995 18.4834C32.4319 14.5836 33.1043 10.5913 32.7934 7.25461M23.1223 24.7954C22.8757 25.9944 22.4163 27.258 21.3713 27.9864C20.2002 28.8044 18.4296 29.0706 17.1689 28.3001C16.3873 27.8211 15.8606 26.9862 15.516 26.1597C13.2663 20.7218 15.5384 14.2726 18.2559 9.42584C18.2223 9.48467 19.3709 10.8126 19.5054 11.0059C21.8195 14.323 23.3436 18.3377 23.3436 22.4112C23.3436 23.2097 23.282 24.0165 23.1195 24.7982M10.5319 6.13677C12.2773 5.37754 14.6082 6.08915 16.8607 8.04185C16.3704 8.88233 15.9194 9.76763 15.5047 10.6894C15.4795 10.7454 15.4487 10.8014 15.4235 10.8603C15.0929 10.6501 14.7595 10.4568 14.4261 10.2691C12.6079 9.24373 10.5908 8.44248 8.51478 8.14831C8.92942 7.34986 9.56538 6.56261 10.5319 6.13957M8.26824 24.6357C5.9009 22.6465 3.88376 20.1559 2.77153 17.3179C1.6705 14.5079 2.06833 10.7258 5.5423 9.97775C8.67167 9.30537 11.9383 10.8883 14.5102 12.53C14.569 12.5664 14.6279 12.6084 14.6867 12.6449C14.6643 12.7009 14.6447 12.7541 14.6279 12.8074C12.9245 17.4888 11.4733 23.9801 14.6195 28.401C14.4121 28.1096 13.2607 27.8519 12.9077 27.681C12.2801 27.3756 11.6666 27.0338 11.0754 26.6668C10.1117 26.0673 9.16755 25.3865 8.27385 24.6329M29.1401 17.7886C28.2324 20.0943 27.0053 23.1088 25.0834 24.7673C25.3804 24.5124 25.1478 23.2181 25.1422 22.8483C25.1282 21.977 25.0946 21.1057 25.0161 20.2344C24.7836 17.6737 24.0048 15.2335 22.8589 12.939C21.9848 11.188 20.895 9.52109 19.5839 8.06427C19.483 7.955 19.385 7.84574 19.2813 7.73648C22.1305 3.46125 25.6913 1.16115 28.0867 2.10248C29.6192 2.70483 30.6529 4.64632 30.9135 7.4227C30.9555 7.90457 30.9807 8.40326 30.9807 8.91035C30.9807 11.6363 30.3448 14.7292 29.1429 17.7858" fill="#68C35C"/>
<path d="M8.14205 30.2024V30.4601H7.7106V31.6704H7.41364V30.4601H6.98779V30.2024H8.14205ZM8.68556 30.2024L9.13381 31.1353L9.58206 30.2024H9.92386V31.6704H9.65491V30.631L9.23186 31.5191H9.03575L8.61552 30.631V31.6704H8.34376V30.2024H8.68556Z" fill="#68C35C"/>
<path d="M48.3644 52.5675C48.3644 50.0993 46.8936 48.4211 44.1621 48.4211C41.7303 48.4211 40.2987 49.8163 40.0913 51.9455H41.7499C41.9012 50.3823 42.8817 49.7771 44.1817 49.7771C45.8402 49.7771 46.6135 50.5868 46.6891 52.2845L43.0134 52.6431C40.789 52.8505 39.884 53.887 39.884 55.3775C39.884 56.358 40.2987 58.1679 43.0498 58.1679C45.3303 58.1679 46.3305 56.8287 46.6863 55.3971H47.157L46.8936 56.3973V56.8483C46.8936 57.5655 47.3082 57.9802 48.0255 57.9802H49.74V56.5486H48.3644V52.5703V52.5675ZM43.3132 56.7895C42.2374 56.7895 41.5398 56.2432 41.5398 55.1674C41.5398 54.2625 42.1421 53.9431 43.2936 53.8282L46.6863 53.4696C46.6863 55.3551 45.3471 56.7867 43.3132 56.7867V56.7895Z" fill="#006173"/>
<path d="M56.9627 48.4213C54.926 48.4213 53.7381 49.6091 53.3627 51.3041H52.892L53.175 50.1723V48.609H51.4968V57.9775H53.175V53.8676C53.175 51.3433 54.5309 49.8529 56.4921 49.8529C58.075 49.8529 58.8286 50.5869 58.8286 52.5284V57.9747H60.4871V52.3015C60.4871 49.6624 59.0919 48.4185 56.9627 48.4185V48.4213Z" fill="#006173"/>
<path d="M67.1409 56.8287C65.1994 56.8287 64.2385 55.4335 64.1824 53.6041H71.6262V53.0017C71.6262 50.0993 69.8164 48.4211 67.0457 48.4211C64.2749 48.4211 62.5603 50.1357 62.5603 53.1698C62.5603 55.9406 64.1068 58.1651 67.1605 58.1651C70.0433 58.1651 71.2873 56.4309 71.6655 54.6967H70.0069C69.6875 55.9966 68.7434 56.8259 67.1409 56.8259V56.8287ZM67.0457 49.7407C68.7238 49.7407 69.8725 50.7213 69.9873 52.4162H64.202C64.3337 50.7213 65.502 49.7407 67.0484 49.7407H67.0457Z" fill="#006173"/>
<path d="M82.0146 52.5675C82.0146 50.0993 80.5438 48.4211 77.8122 48.4211C75.3804 48.4211 73.9488 49.8163 73.7415 51.9455H75.4C75.5513 50.3823 76.5319 49.7771 77.8318 49.7771C79.4904 49.7771 80.2636 50.5868 80.3392 52.2845L76.6636 52.6431C74.4391 52.8505 73.5342 53.887 73.5342 55.3775C73.5342 56.358 73.9488 58.1679 76.7 58.1679C78.9805 58.1679 79.9806 56.8287 80.3364 55.3971H80.8071L80.5438 56.3973V56.8483C80.5438 57.5655 80.9584 57.9802 81.6756 57.9802H83.3902V56.5486H82.0146V52.5703V52.5675ZM76.9633 56.7895C75.8875 56.7895 75.1899 56.2432 75.1899 55.1674C75.1899 54.2625 75.7923 53.9431 76.9437 53.8282L80.3364 53.4696C80.3364 55.3551 78.9973 56.7867 76.9633 56.7867V56.7895Z" fill="#006173"/>
<path d="M90.705 48.4213C88.6682 48.4213 87.4243 49.6091 87.0097 51.3041H86.5194L86.822 50.1722V46.7151H85.1438V57.9775H86.822V53.9992C86.822 51.475 88.0855 49.8529 90.1194 49.8529C91.7219 49.8529 92.4559 50.6065 92.4559 52.5284V57.9747H94.1145V52.3379C94.1145 49.8108 92.8342 48.4156 90.7022 48.4156L90.705 48.4213Z" fill="#006173"/>
<path d="M36.13 52.7188C36.13 55.2431 34.774 56.7335 32.8129 56.7335C31.23 56.7335 30.4764 55.9995 30.4764 54.0552V48.6089H28.8179V54.2821C28.8179 56.9212 30.2131 58.1651 32.3423 58.1651C34.4715 58.1651 35.5641 56.9772 35.9423 55.2823H36.413L36.13 56.4141V60.0001H37.8082V48.6117H36.13V52.7216V52.7188Z" fill="#006173"/>
<path d="M78.2491 40.445L77.9858 39.33H78.4396C78.8178 41.0305 80.0085 42.224 82.0509 42.224C82.0509 42.224 82.0509 42.224 82.0537 42.224H90.5593C92.7165 42.224 94.1145 40.9577 94.1145 38.3298V32.637H92.4308V38.1029C92.4308 40.022 91.6995 40.7784 90.111 40.7868H81.5606C79.6219 40.7784 78.2491 39.288 78.2491 36.7413V29.4124H76.585V42.0363H78.2491V40.4478V40.445Z" fill="#006173"/>
<path d="M34.2585 31.2055C34.9673 31.2055 35.536 30.6872 35.536 29.9952C35.536 29.3032 34.9673 28.7849 34.2585 28.7849C33.5497 28.7849 32.9978 29.3032 32.9978 29.9952C32.9978 30.6872 33.5329 31.2055 34.2585 31.2055Z" fill="#006173"/>
<path d="M30.6809 31.2055C31.4065 31.2055 31.9612 30.6872 31.9612 29.9952C31.9612 29.3032 31.4093 28.7849 30.6809 28.7849C29.9525 28.7849 29.437 29.3032 29.437 29.9952C29.437 30.6872 29.9721 31.2055 30.6809 31.2055Z" fill="#006173"/>
<path d="M88.5449 44.7708C88.5449 45.4628 89.08 45.9811 89.7888 45.9811C90.4976 45.9811 91.0692 45.4628 91.0692 44.7708C91.0692 44.0788 90.5172 43.5605 89.7888 43.5605C89.0604 43.5605 88.5449 44.0788 88.5449 44.7708Z" fill="#006173"/>
<path d="M93.3664 43.5632C92.6408 43.5632 92.1057 44.0815 92.1057 44.7735C92.1057 45.4655 92.6408 45.9838 93.3664 45.9838C94.092 45.9838 94.644 45.4655 94.644 44.7735C94.644 44.0815 94.0752 43.5632 93.3664 43.5632Z" fill="#006173"/>
<path d="M71.0659 28.9724C70.3403 28.9724 69.8052 29.4907 69.8052 30.1827C69.8052 30.8747 70.3403 31.393 71.0659 31.393C71.7915 31.393 72.3434 30.8747 72.3434 30.1827C72.3434 29.4907 71.7747 28.9724 71.0659 28.9724Z" fill="#006173"/>
<path d="M70.3513 38.2878C70.3513 40.2153 69.6145 40.9745 68.0064 40.9745H58.0383C57.6853 40.9745 57.3295 40.9017 56.9821 40.8317C56.6347 40.7616 56.2845 40.6636 55.9315 40.5375C56.6375 40.0444 57.2455 39.4589 57.7554 38.7781C58.2652 38.0973 58.6575 37.3493 58.9292 36.5368C59.201 35.7244 59.3354 34.8811 59.3354 34.0126C58.7303 33.598 58.0243 33.2618 57.2174 33.0096C56.4106 32.7575 55.6093 32.6314 54.8165 32.6314C54.2253 32.6314 53.6314 32.7155 53.0375 32.8864C52.4435 33.0572 51.8804 33.2954 51.3453 33.6036C50.8102 33.9117 50.3087 34.2815 49.8409 34.7102C49.9557 35.391 50.1883 36.1138 50.5413 36.8758C50.8943 37.6378 51.3229 38.3551 51.8272 39.0218C52.0793 39.3496 52.3315 39.6438 52.5836 39.9015C52.8358 40.1593 53.0823 40.3778 53.3204 40.5543C53.0291 40.6804 52.6957 40.7756 52.3175 40.8373C51.9392 40.8989 51.5386 40.9689 51.0848 40.9689H38.7998H36.7238V32.2056H35.1409V33.3766H33.911C32.8688 33.3766 31.9667 33.5699 31.2019 33.9538C30.4398 34.3376 29.8487 34.8811 29.4341 35.5815C29.0166 36.2819 28.8093 37.1224 28.8093 38.1029C28.8093 38.9966 28.9942 39.7671 29.3668 40.4114C29.7395 41.0558 30.2774 41.5489 30.9862 41.8907C31.6922 42.2325 32.5438 42.4033 33.5356 42.4033H51.082C51.6983 42.4033 52.3007 42.3249 52.889 42.168C53.4745 42.0111 54.046 41.773 54.6008 41.4592C55.1807 41.7758 55.7774 42.0111 56.3882 42.168C56.9989 42.3249 57.5704 42.4033 58.0999 42.4033H68.4966C70.6399 42.3921 72.0266 41.1258 72.0266 38.5063V32.6258H70.3429V38.2794L70.3513 38.2878ZM35.1465 40.9605H33.5076C32.5382 40.9605 31.793 40.7168 31.2635 40.2265C30.7368 39.7362 30.4735 39.0274 30.4735 38.0945C30.4735 37.0635 30.776 36.2651 31.3868 35.6935C31.9947 35.1248 32.8576 34.8391 33.9727 34.8391H35.1465V40.9633V40.9605ZM54.6288 39.7082C54.1385 39.33 53.6902 38.9042 53.2868 38.4307C52.8834 37.9572 52.5416 37.4473 52.2642 36.8982C51.9869 36.3491 51.7852 35.786 51.6591 35.2061C52.0233 34.9539 52.3847 34.7494 52.7377 34.5925C53.0907 34.4356 53.4465 34.3152 53.8051 34.2339C54.1637 34.1527 54.5195 34.1106 54.8725 34.1106C55.3376 34.1106 55.7998 34.1667 56.2537 34.2815C56.7076 34.3964 57.1558 34.5729 57.5957 34.811C57.5312 35.8448 57.2651 36.7553 56.7916 37.5426C56.3181 38.3298 55.5981 39.0527 54.626 39.7082H54.6288Z" fill="#006173"/>
</svg>
