<svg width="567" height="756" viewBox="0 0 567 756" fill="none" xmlns="http://www.w3.org/2000/svg">
<rect width="494" height="756" rx="139" fill="url(#paint0_linear_118_6275)"/>
<g filter="url(#filter0_d_118_6275)">
<mask id="path-2-outside-1_118_6275" maskUnits="userSpaceOnUse" x="109" y="256" width="106" height="103" fill="black">
<rect fill="white" x="109" y="256" width="106" height="103"/>
<path d="M208.793 283.93C207.821 273.629 203.698 266.553 197.17 263.998C187.701 260.287 175.583 267.103 165.741 281.464L165.684 281.407L165.611 281.52C157.633 274.922 149.063 272.723 142.226 275.707C137.982 277.558 134.726 281.181 132.725 286.21C126.917 286.461 122.211 288.474 119.052 292.137C116.055 295.606 114.67 300.296 115.067 305.722C115.828 316.177 123.223 328.605 134.337 338.17C142.105 344.882 151.704 350.404 161.975 351.981C175.567 354.075 185.457 345.553 192.966 335.243C193.363 334.693 193.76 334.136 194.148 333.578C197.68 328.524 200.831 322.662 203.31 316.347C207.74 305.091 209.684 293.568 208.785 283.938M180.824 334.564C180.111 338.025 178.782 341.672 175.761 343.774C172.375 346.135 167.256 346.903 163.611 344.68C161.351 343.297 159.828 340.887 158.832 338.502C152.327 322.807 158.896 304.193 166.754 290.205C166.656 290.375 169.977 294.207 170.366 294.765C177.057 304.339 181.464 315.926 181.464 327.683C181.464 329.987 181.285 332.316 180.815 334.572M144.421 280.712C149.468 278.521 156.207 280.574 162.72 286.21C161.302 288.636 159.998 291.191 158.799 293.851C158.726 294.013 158.637 294.175 158.564 294.345C157.609 293.738 156.645 293.18 155.681 292.639C150.424 289.679 144.592 287.367 138.589 286.518C139.788 284.213 141.627 281.941 144.421 280.72M137.877 334.103C131.032 328.362 125.2 321.174 121.984 312.983C118.801 304.873 119.951 293.957 129.995 291.798C139.043 289.857 148.488 294.426 155.924 299.164C156.094 299.269 156.264 299.39 156.434 299.495C156.369 299.657 156.313 299.811 156.264 299.964C151.339 313.476 147.143 332.211 156.24 344.971C155.64 344.13 152.311 343.386 151.29 342.893C149.476 342.011 147.702 341.025 145.993 339.965C143.206 338.235 140.477 336.27 137.893 334.095M198.223 314.341C195.598 320.996 192.05 329.696 186.494 334.483C187.352 333.747 186.68 330.012 186.664 328.944C186.623 326.43 186.526 323.915 186.299 321.4C185.627 314.01 183.375 306.967 180.062 300.344C177.535 295.291 174.384 290.48 170.593 286.275C170.301 285.96 170.018 285.644 169.718 285.329C177.956 272.99 188.251 266.351 195.177 269.068C199.608 270.807 202.597 276.41 203.35 284.423C203.472 285.814 203.545 287.253 203.545 288.717C203.545 296.585 201.706 305.511 198.231 314.333"/>
</mask>
<path d="M208.793 283.93C207.821 273.629 203.698 266.553 197.17 263.998C187.701 260.287 175.583 267.103 165.741 281.464L165.684 281.407L165.611 281.52C157.633 274.922 149.063 272.723 142.226 275.707C137.982 277.558 134.726 281.181 132.725 286.21C126.917 286.461 122.211 288.474 119.052 292.137C116.055 295.606 114.67 300.296 115.067 305.722C115.828 316.177 123.223 328.605 134.337 338.17C142.105 344.882 151.704 350.404 161.975 351.981C175.567 354.075 185.457 345.553 192.966 335.243C193.363 334.693 193.76 334.136 194.148 333.578C197.68 328.524 200.831 322.662 203.31 316.347C207.74 305.091 209.684 293.568 208.785 283.938M180.824 334.564C180.111 338.025 178.782 341.672 175.761 343.774C172.375 346.135 167.256 346.903 163.611 344.68C161.351 343.297 159.828 340.887 158.832 338.502C152.327 322.807 158.896 304.193 166.754 290.205C166.656 290.375 169.977 294.207 170.366 294.765C177.057 304.339 181.464 315.926 181.464 327.683C181.464 329.987 181.285 332.316 180.815 334.572M144.421 280.712C149.468 278.521 156.207 280.574 162.72 286.21C161.302 288.636 159.998 291.191 158.799 293.851C158.726 294.013 158.637 294.175 158.564 294.345C157.609 293.738 156.645 293.18 155.681 292.639C150.424 289.679 144.592 287.367 138.589 286.518C139.788 284.213 141.627 281.941 144.421 280.72M137.877 334.103C131.032 328.362 125.2 321.174 121.984 312.983C118.801 304.873 119.951 293.957 129.995 291.798C139.043 289.857 148.488 294.426 155.924 299.164C156.094 299.269 156.264 299.39 156.434 299.495C156.369 299.657 156.313 299.811 156.264 299.964C151.339 313.476 147.143 332.211 156.24 344.971C155.64 344.13 152.311 343.386 151.29 342.893C149.476 342.011 147.702 341.025 145.993 339.965C143.206 338.235 140.477 336.27 137.893 334.095M198.223 314.341C195.598 320.996 192.05 329.696 186.494 334.483C187.352 333.747 186.68 330.012 186.664 328.944C186.623 326.43 186.526 323.915 186.299 321.4C185.627 314.01 183.375 306.967 180.062 300.344C177.535 295.291 174.384 290.48 170.593 286.275C170.301 285.96 170.018 285.644 169.718 285.329C177.956 272.99 188.251 266.351 195.177 269.068C199.608 270.807 202.597 276.41 203.35 284.423C203.472 285.814 203.545 287.253 203.545 288.717C203.545 296.585 201.706 305.511 198.231 314.333" fill="#68C35C"/>
<path d="M197.17 263.998L194.98 269.585L194.983 269.586L197.17 263.998ZM165.741 281.464L161.502 285.71L166.61 290.809L170.69 284.856L165.741 281.464ZM165.684 281.407L169.923 277.161L164.664 271.911L160.64 278.159L165.684 281.407ZM165.611 281.52L161.788 286.144L166.996 290.452L170.656 284.769L165.611 281.52ZM142.226 275.707L144.626 281.206L144.626 281.206L142.226 275.707ZM132.725 286.21L132.984 292.205L136.864 292.037L138.3 288.428L132.725 286.21ZM119.052 292.137L123.592 296.06L123.595 296.056L119.052 292.137ZM115.067 305.722L121.051 305.286L121.051 305.284L115.067 305.722ZM134.337 338.17L138.259 333.63L138.251 333.623L134.337 338.17ZM161.975 351.981L162.888 346.051L162.885 346.051L161.975 351.981ZM192.966 335.243L197.816 338.776L197.823 338.765L197.831 338.755L192.966 335.243ZM194.148 333.578L189.23 330.141L189.226 330.147L194.148 333.578ZM203.31 316.347L197.727 314.149L197.724 314.154L203.31 316.347ZM175.761 343.774L172.334 338.849L172.329 338.852L175.761 343.774ZM163.611 344.68L160.479 349.798L160.486 349.802L163.611 344.68ZM158.832 338.502L153.289 340.799L153.292 340.807L153.295 340.814L158.832 338.502ZM166.754 290.205L171.985 293.143L161.546 287.224L166.754 290.205ZM170.366 294.765L165.444 298.196L165.448 298.202L170.366 294.765ZM162.72 286.21L167.9 289.237L170.415 284.935L166.646 281.673L162.72 286.21ZM158.799 293.851L164.269 296.317L164.269 296.317L158.799 293.851ZM158.564 294.345L155.35 299.411L161.298 303.185L164.078 296.712L158.564 294.345ZM155.681 292.639L152.737 297.867L152.741 297.869L155.681 292.639ZM138.589 286.518L133.267 283.749L129.353 291.271L137.749 292.458L138.589 286.518ZM121.984 312.983L116.399 315.175L116.399 315.175L121.984 312.983ZM129.995 291.798L128.737 285.931L128.734 285.932L129.995 291.798ZM155.924 299.164L152.699 304.224L152.734 304.246L152.77 304.268L155.924 299.164ZM156.434 299.495L162.004 301.727L163.88 297.044L159.588 294.391L156.434 299.495ZM156.264 299.964L161.901 302.019L161.945 301.898L161.985 301.774L156.264 299.964ZM156.24 344.971L151.354 348.454L161.125 341.488L156.24 344.971ZM151.29 342.893L148.669 348.29L148.68 348.295L151.29 342.893ZM145.993 339.965L142.828 345.063L142.832 345.065L145.993 339.965ZM186.494 334.483L182.578 329.937L190.398 339.039L186.494 334.483ZM186.664 328.944L192.663 328.853L192.663 328.848L186.664 328.944ZM186.299 321.4L192.275 320.861L192.275 320.857L186.299 321.4ZM180.062 300.344L174.696 303.028L174.696 303.029L180.062 300.344ZM170.593 286.275L175.049 282.257L175.024 282.229L174.998 282.201L170.593 286.275ZM169.718 285.329L164.728 281.997L162.065 285.986L165.369 289.462L169.718 285.329ZM195.177 269.068L197.369 263.483L197.368 263.483L195.177 269.068ZM203.35 284.423L209.327 283.901L209.326 283.881L209.324 283.862L203.35 284.423ZM208.793 283.93L214.767 283.366C213.696 272.017 208.926 262.156 199.356 258.411L197.17 263.998L194.983 269.586C198.471 270.951 201.947 275.24 202.82 284.494L208.793 283.93ZM197.17 263.998L199.359 258.412C192.478 255.715 185.173 257.089 178.673 260.714C172.199 264.324 166.071 270.369 160.792 278.072L165.741 281.464L170.69 284.856C175.253 278.198 180.105 273.655 184.517 271.194C188.904 268.748 192.392 268.57 194.98 269.585L197.17 263.998ZM165.741 281.464L169.98 277.217L169.923 277.161L165.684 281.407L161.445 285.654L161.502 285.71L165.741 281.464ZM165.684 281.407L160.64 278.159L160.567 278.272L165.611 281.52L170.656 284.769L170.729 284.656L165.684 281.407ZM165.611 281.52L169.435 276.897C160.544 269.544 149.568 265.956 139.826 270.208L142.226 275.707L144.626 281.206C148.557 279.49 154.721 280.3 161.788 286.144L165.611 281.52ZM142.226 275.707L139.827 270.207C133.871 272.806 129.62 277.782 127.15 283.993L132.725 286.21L138.3 288.428C139.831 284.58 142.093 282.311 144.626 281.206L142.226 275.707ZM132.725 286.21L132.466 280.216C125.401 280.521 118.982 283.031 114.508 288.219L119.052 292.137L123.595 296.056C125.439 293.918 128.433 292.401 132.984 292.205L132.725 286.21ZM119.052 292.137L114.512 288.215C110.29 293.101 108.592 299.451 109.083 306.159L115.067 305.722L121.051 305.284C120.747 301.141 121.82 298.111 123.592 296.06L119.052 292.137ZM115.067 305.722L109.082 306.157C110 318.755 118.596 332.538 130.423 342.718L134.337 338.17L138.251 333.623C127.851 324.671 121.656 313.598 121.051 305.286L115.067 305.722ZM134.337 338.17L130.414 342.711C138.72 349.886 149.327 356.11 161.064 357.912L161.975 351.981L162.885 346.051C154.08 344.699 145.49 339.877 138.259 333.63L134.337 338.17ZM161.975 351.981L161.061 357.911C178.147 360.544 189.974 349.542 197.816 338.776L192.966 335.243L188.116 331.711C180.939 341.564 172.986 347.607 162.888 346.051L161.975 351.981ZM192.966 335.243L197.831 338.755C198.244 338.183 198.66 337.598 199.071 337.008L194.148 333.578L189.226 330.147C188.859 330.673 188.482 331.204 188.101 331.731L192.966 335.243ZM194.148 333.578L199.066 337.014C202.879 331.559 206.25 325.277 208.895 318.539L203.31 316.347L197.724 314.154C195.412 320.046 192.481 325.488 189.23 330.141L194.148 333.578ZM203.31 316.347L208.893 318.544C213.584 306.626 215.765 294.151 214.759 283.38L208.785 283.938L202.811 284.496C203.604 292.986 201.897 303.556 197.727 314.149L203.31 316.347ZM180.824 334.564L174.947 333.354C174.301 336.488 173.366 338.131 172.334 338.849L175.761 343.774L179.188 348.699C184.199 345.212 185.92 339.561 186.7 335.774L180.824 334.564ZM175.761 343.774L172.329 338.852C170.352 340.231 167.838 340.23 166.735 339.557L163.611 344.68L160.486 349.802C166.674 353.577 174.398 352.039 179.193 348.695L175.761 343.774ZM163.611 344.68L166.742 339.561C166.037 339.13 165.151 338.064 164.368 336.189L158.832 338.502L153.295 340.814C154.505 343.71 156.664 347.463 160.479 349.798L163.611 344.68ZM158.832 338.502L164.375 336.205C159.014 323.27 164.256 306.904 171.985 293.143L166.754 290.205L161.522 287.266C153.537 301.483 145.641 322.344 153.289 340.799L158.832 338.502ZM166.754 290.205L161.546 287.224C160.798 288.531 160.736 289.762 160.754 290.387C160.773 291.052 160.899 291.573 160.978 291.856C161.137 292.419 161.344 292.836 161.425 292.997C161.613 293.365 161.806 293.656 161.889 293.778C162.086 294.072 162.309 294.365 162.48 294.586C162.846 295.059 163.317 295.634 163.752 296.161C164.157 296.651 164.694 297.294 165.002 297.667C165.457 298.217 165.527 298.315 165.444 298.196L170.366 294.765L175.289 291.335C175.101 291.066 174.876 290.786 174.766 290.65C174.614 290.461 174.433 290.241 174.246 290.016C173.826 289.507 173.465 289.077 173.003 288.518C172.572 287.996 172.206 287.546 171.965 287.235C171.832 287.064 171.809 287.026 171.841 287.075C171.855 287.095 171.886 287.141 171.926 287.207C171.962 287.265 172.036 287.389 172.123 287.559C172.185 287.682 172.379 288.068 172.53 288.607C172.606 288.877 172.73 289.388 172.749 290.044C172.767 290.66 172.706 291.883 171.961 293.186L166.754 290.205ZM170.366 294.765L165.448 298.202C171.587 306.986 175.464 317.397 175.464 327.683H181.464H187.464C187.464 314.455 182.527 301.692 175.284 291.328L170.366 294.765ZM181.464 327.683H175.464C175.464 329.69 175.307 331.593 174.942 333.349L180.815 334.572L186.689 335.795C187.263 333.039 187.464 330.285 187.464 327.683H181.464ZM144.421 280.712L146.811 286.215C148.659 285.413 152.907 285.654 158.793 290.747L162.72 286.21L166.646 281.673C159.507 275.495 150.276 271.628 142.032 275.208L144.421 280.712ZM162.72 286.21L157.539 283.183C156.005 285.809 154.606 288.553 153.329 291.386L158.799 293.851L164.269 296.317C165.39 293.829 166.599 291.464 167.9 289.237L162.72 286.21ZM158.799 293.851L153.329 291.386C153.344 291.353 153.353 291.336 153.347 291.347C153.339 291.364 153.333 291.376 153.304 291.435C153.263 291.518 153.158 291.729 153.051 291.978L158.564 294.345L164.078 296.712C164.058 296.758 164.044 296.787 164.041 296.793C164.039 296.797 164.042 296.791 164.06 296.756C164.071 296.733 164.106 296.662 164.137 296.599C164.171 296.529 164.218 296.431 164.269 296.317L158.799 293.851ZM158.564 294.345L161.779 289.278C160.693 288.589 159.624 287.972 158.62 287.408L155.681 292.639L152.741 297.869C153.666 298.389 154.524 298.887 155.35 299.411L158.564 294.345ZM155.681 292.639L158.624 287.41C152.913 284.195 146.366 281.558 139.43 280.577L138.589 286.518L137.749 292.458C142.818 293.175 147.935 295.163 152.737 297.867L155.681 292.639ZM138.589 286.518L143.912 289.287C144.729 287.716 145.708 286.706 146.824 286.218L144.421 280.72L142.019 275.222C137.546 277.176 134.847 280.71 133.267 283.749L138.589 286.518ZM137.877 334.103L141.732 329.506C135.448 324.235 130.33 317.824 127.569 310.79L121.984 312.983L116.399 315.175C120.069 324.524 126.616 332.49 134.021 338.7L137.877 334.103ZM121.984 312.983L127.569 310.791C126.345 307.671 126.092 304.283 126.799 301.805C127.407 299.673 128.645 298.225 131.256 297.664L129.995 291.798L128.734 285.932C121.301 287.529 116.941 292.619 115.26 298.512C113.676 304.059 114.44 310.185 116.399 315.175L121.984 312.983ZM129.995 291.798L131.253 297.664C137.741 296.273 145.33 299.528 152.699 304.224L155.924 299.164L159.148 294.104C151.645 289.323 140.345 283.441 128.737 285.931L129.995 291.798ZM155.924 299.164L152.77 304.268C152.754 304.258 152.754 304.258 152.855 304.325C152.924 304.371 153.094 304.485 153.28 304.6L156.434 299.495L159.588 294.391C159.604 294.401 159.603 294.402 159.503 294.335C159.433 294.288 159.264 294.175 159.078 294.06L155.924 299.164ZM156.434 299.495L150.865 297.264C150.762 297.52 150.65 297.819 150.543 298.155L156.264 299.964L161.985 301.774C161.976 301.802 161.976 301.795 162.004 301.727L156.434 299.495ZM156.264 299.964L150.627 297.91C148.069 304.927 145.587 313.588 145.007 322.353C144.428 331.103 145.712 340.539 151.354 348.454L156.24 344.971L161.125 341.488C157.671 336.642 156.505 330.331 156.981 323.146C157.455 315.975 159.534 308.514 161.901 302.019L156.264 299.964ZM156.24 344.971L161.125 341.488C160.465 340.561 159.696 339.987 159.26 339.691C158.772 339.361 158.298 339.115 157.93 338.94C157.199 338.594 156.434 338.318 155.859 338.122C155.306 337.934 154.622 337.718 154.277 337.605C153.743 337.43 153.733 337.409 153.901 337.49L151.29 342.893L148.68 348.295C149.075 348.486 149.457 348.631 149.717 348.726C150 348.829 150.29 348.926 150.543 349.009C151.129 349.201 151.505 349.316 151.987 349.48C152.447 349.637 152.69 349.736 152.784 349.781C152.828 349.802 152.72 349.755 152.534 349.629C152.398 349.537 151.865 349.17 151.354 348.453L156.24 344.971ZM151.29 342.893L153.912 337.496C152.296 336.711 150.702 335.825 149.154 334.865L145.993 339.965L142.832 345.065C144.702 346.224 146.656 347.312 148.669 348.29L151.29 342.893ZM145.993 339.965L149.158 334.868C146.607 333.284 144.112 331.487 141.757 329.505L137.893 334.095L134.029 338.685C136.842 341.053 139.806 343.186 142.828 345.063L145.993 339.965ZM198.223 314.341L192.641 312.14C191.326 315.475 189.891 319.029 188.156 322.304C186.399 325.62 184.541 328.246 182.578 329.937L186.494 334.483L190.41 339.029C194.003 335.933 196.697 331.816 198.76 327.921C200.844 323.986 202.495 319.862 203.804 316.542L198.223 314.341ZM186.494 334.483L190.398 339.039C191.574 338.031 192.125 336.847 192.384 336.135C192.659 335.383 192.779 334.685 192.841 334.185C192.962 333.192 192.936 332.21 192.898 331.514C192.858 330.775 192.785 330.054 192.734 329.551C192.666 328.883 192.662 328.791 192.663 328.853L186.664 328.944L180.664 329.035C180.67 329.402 180.7 329.76 180.72 329.989C180.742 330.242 180.771 330.524 180.795 330.762C180.848 331.283 180.893 331.742 180.916 332.163C180.941 332.625 180.923 332.782 180.929 332.73C180.933 332.7 180.965 332.423 181.112 332.02C181.244 331.658 181.628 330.752 182.589 329.927L186.494 334.483ZM186.664 328.944L192.663 328.848C192.621 326.248 192.52 323.575 192.275 320.861L186.299 321.4L180.324 321.939C180.532 324.255 180.625 326.611 180.665 329.041L186.664 328.944ZM186.299 321.4L192.275 320.857C191.523 312.596 189.015 304.83 185.428 297.66L180.062 300.344L174.696 303.029C177.735 309.104 179.731 315.424 180.324 321.944L186.299 321.4ZM180.062 300.344L185.429 297.661C182.695 292.194 179.252 286.919 175.049 282.257L170.593 286.275L166.137 290.293C169.516 294.041 172.375 298.387 174.696 303.028L180.062 300.344ZM170.593 286.275L174.998 282.201C174.786 281.972 174.4 281.545 174.067 281.196L169.718 285.329L165.369 289.462C165.636 289.743 165.817 289.947 166.188 290.349L170.593 286.275ZM169.718 285.329L174.708 288.66C178.502 282.978 182.582 278.907 186.176 276.605C189.933 274.199 192.122 274.315 192.986 274.654L195.177 269.068L197.368 263.483C191.306 261.104 184.885 263.181 179.704 266.5C174.359 269.923 169.172 275.341 164.728 281.997L169.718 285.329ZM195.177 269.068L192.986 274.654C194.123 275.1 196.681 277.589 197.376 284.985L203.35 284.423L209.324 283.862C208.512 275.231 205.093 266.513 197.369 263.483L195.177 269.068ZM203.35 284.423L197.373 284.945C197.481 286.188 197.545 287.451 197.545 288.717H203.545H209.545C209.545 287.056 209.462 285.441 209.327 283.901L203.35 284.423ZM203.545 288.717H197.545C197.545 295.703 195.899 303.882 192.648 312.134L198.231 314.333L203.813 316.532C207.513 307.141 209.545 297.466 209.545 288.717H203.545Z" fill="white" mask="url(#path-2-outside-1_118_6275)"/>
</g>
<mask id="mask0_118_6275" style="mask-type:alpha" maskUnits="userSpaceOnUse" x="7" y="238" width="480" height="480">
<rect width="480" height="480" transform="translate(7 238)" fill="url(#paint1_radial_118_6275)"/>
</mask>
<g mask="url(#mask0_118_6275)">
<g clip-path="url(#clip0_118_6275)">
<g clip-path="url(#clip1_118_6275)">
<line x1="7.5" y1="238" x2="7.5" y2="718" stroke="#C8CACF"/>
<line x1="39.5" y1="238" x2="39.5" y2="718" stroke="#C8CACF"/>
<line x1="71.5" y1="238" x2="71.5" y2="718" stroke="#C8CACF"/>
<line x1="103.5" y1="238" x2="103.5" y2="718" stroke="#C8CACF"/>
<line x1="135.5" y1="238" x2="135.5" y2="718" stroke="#C8CACF"/>
<line x1="167.5" y1="238" x2="167.5" y2="718" stroke="#C8CACF"/>
<line x1="199.5" y1="238" x2="199.5" y2="718" stroke="#C8CACF"/>
<line x1="231.5" y1="238" x2="231.5" y2="718" stroke="#C8CACF"/>
<line x1="263.5" y1="238" x2="263.5" y2="718" stroke="#C8CACF"/>
<line x1="295.5" y1="238" x2="295.5" y2="718" stroke="#C8CACF"/>
<line x1="327.5" y1="238" x2="327.5" y2="718" stroke="#C8CACF"/>
<line x1="359.5" y1="238" x2="359.5" y2="718" stroke="#C8CACF"/>
<line x1="391.5" y1="238" x2="391.5" y2="718" stroke="#C8CACF"/>
<line x1="423.5" y1="238" x2="423.5" y2="718" stroke="#C8CACF"/>
<line x1="455.5" y1="238" x2="455.5" y2="718" stroke="#C8CACF"/>
</g>
<rect x="7.5" y="238.5" width="479" height="479" stroke="#C8CACF"/>
<g clip-path="url(#clip2_118_6275)">
<line x1="7" y1="269.5" x2="487" y2="269.5" stroke="#C8CACF"/>
<line x1="7" y1="301.5" x2="487" y2="301.5" stroke="#C8CACF"/>
<line x1="7" y1="333.5" x2="487" y2="333.5" stroke="#C8CACF"/>
<line x1="7" y1="365.5" x2="487" y2="365.5" stroke="#C8CACF"/>
<line x1="7" y1="397.5" x2="487" y2="397.5" stroke="#C8CACF"/>
<line x1="7" y1="429.5" x2="487" y2="429.5" stroke="#C8CACF"/>
<line x1="7" y1="461.5" x2="487" y2="461.5" stroke="#C8CACF"/>
<line x1="7" y1="493.5" x2="487" y2="493.5" stroke="#C8CACF"/>
<line x1="7" y1="525.5" x2="487" y2="525.5" stroke="#C8CACF"/>
<line x1="7" y1="557.5" x2="487" y2="557.5" stroke="#C8CACF"/>
<line x1="7" y1="589.5" x2="487" y2="589.5" stroke="#C8CACF"/>
<line x1="7" y1="621.5" x2="487" y2="621.5" stroke="#C8CACF"/>
<line x1="7" y1="653.5" x2="487" y2="653.5" stroke="#C8CACF"/>
<line x1="7" y1="685.5" x2="487" y2="685.5" stroke="#C8CACF"/>
<line x1="7" y1="717.5" x2="487" y2="717.5" stroke="#C8CACF"/>
</g>
<rect x="7.5" y="238.5" width="479" height="479" stroke="#C8CACF"/>
</g>
</g>
<defs>
<filter id="filter0_d_118_6275" x="105" y="253.997" width="114" height="109.309" filterUnits="userSpaceOnUse" color-interpolation-filters="sRGB">
<feFlood flood-opacity="0" result="BackgroundImageFix"/>
<feColorMatrix in="SourceAlpha" type="matrix" values="0 0 0 0 0 0 0 0 0 0 0 0 0 0 0 0 0 0 127 0" result="hardAlpha"/>
<feOffset dy="1"/>
<feGaussianBlur stdDeviation="2"/>
<feComposite in2="hardAlpha" operator="out"/>
<feColorMatrix type="matrix" values="0 0 0 0 0 0 0 0 0 0 0 0 0 0 0 0 0 0 0.25 0"/>
<feBlend mode="normal" in2="BackgroundImageFix" result="effect1_dropShadow_118_6275"/>
<feBlend mode="normal" in="SourceGraphic" in2="effect1_dropShadow_118_6275" result="shape"/>
</filter>
<linearGradient id="paint0_linear_118_6275" x1="-26.131" y1="378" x2="557.356" y2="432.948" gradientUnits="userSpaceOnUse">
<stop stop-color="#68C35C"/>
<stop offset="0.476794" stop-color="#359267"/>
<stop offset="1" stop-color="#006173"/>
</linearGradient>
<radialGradient id="paint1_radial_118_6275" cx="0" cy="0" r="1" gradientUnits="userSpaceOnUse" gradientTransform="translate(240 240) rotate(90) scale(240 240)">
<stop/>
<stop offset="1" stop-opacity="0"/>
</radialGradient>
<clipPath id="clip0_118_6275">
<rect width="480" height="480" fill="white" transform="translate(7 238)"/>
</clipPath>
<clipPath id="clip1_118_6275">
<rect x="7" y="238" width="480" height="480" fill="white"/>
</clipPath>
<clipPath id="clip2_118_6275">
<rect x="7" y="238" width="480" height="480" fill="white"/>
</clipPath>
</defs>
</svg>
